<svg id="Layer_1" data-name="Layer 1" xmlns="http://www.w3.org/2000/svg" viewBox="0 0 630.29 456.04"><defs><style>.cls-1{fill:#ffcf67;}.cls-2{fill:#f47d65;}.cls-3{fill:#818285;}.cls-4{fill:#2f4f61;}.cls-5{fill:#f99c2f;}.cls-6{fill:#e5765f;}.cls-7{fill:#375b71;}.cls-8{fill:#0c89b0;}.cls-9{fill:#e2bca6;}.cls-10{fill:#0b7b9d;}.cls-11{fill:#e0b65a;}.cls-12{fill:#264252;}.cls-13{fill:#e2bda6;}.cls-14{fill:#ebebeb;}.cls-15{fill:#f7ceb5;}.cls-16{fill:#eaebeb;}.cls-17{fill:#e1b95c;}.cls-18{fill:#07a9d8;}.cls-19{fill:#eccd8d;}.cls-20{fill:#0095bf;}.cls-21{fill:#ffe099;}.cls-22{fill:#ffe098;}.cls-23{fill:#375b72;}.cls-24{fill:#0295c0;}.cls-25{fill:#727476;}.cls-26{fill:#fdde99;}.cls-27{fill:#bf9f8d;}.cls-28{fill:#f4f5f5;}.cls-29{fill:#f8d07b;}.cls-30{fill:#818386;}.cls-31{fill:#eed39a;}.cls-32{fill:#f8dfa8;}.cls-33{fill:#bdc3c6;}.cls-34{fill:#f9e5df;}.cls-35{fill:#4f8eae;}.cls-36{fill:#fae5e0;}.cls-37{fill:#4a89aa;}.cls-38{fill:#f9e3dd;}.cls-39{fill:#f9e4de;}.cls-40{fill:#f8dfd9;}.cls-41{fill:#b1bfc5;}.cls-42{fill:#837e6b;}.cls-43{fill:#fff;}.cls-44{fill:#f4cb72;}.cls-45{fill:#2f566b;}.cls-46{fill:#0b89b0;}.cls-47{fill:#f1866f;}.cls-48{fill:#dc7b68;}.cls-49{fill:#dd7b67;}.cls-50{fill:#f0856e;}.cls-51{fill:#db7c68;}.cls-52{fill:#dd7b68;}.cls-53{fill:#d97b68;}.cls-54{fill:#da7c69;}.cls-55{fill:#dc7c69;}.cls-56{fill:#f0f0f0;}.cls-57{fill:#dcdbda;}.cls-58{fill:#f5dfd9;}.cls-59{fill:#f9e5e0;}.cls-60{fill:#f7e0da;}.cls-61{fill:#3c5364;}.cls-62{fill:#3c5464;}.cls-63{fill:#f6dbd4;}.cls-64{fill:#f3dbd5;}.cls-65{fill:#3c5465;}.cls-66{fill:#f9e1da;}.cls-67{fill:#f28a72;}.cls-68{fill:#ef856c;}.cls-69{fill:#ffd463;}.cls-70{fill:#e0bb59;}.cls-71{fill:#fefefe;}.cls-72{fill:#2c4b5c;}.cls-73{fill:#a0a9af;}.cls-74{fill:#d6d7d9;}.cls-75{fill:#eec262;}.cls-76{fill:#cad0d0;}.cls-77{fill:#ced1d2;}.cls-78{fill:#d0d3d3;}.cls-79{fill:#7a8388;}.cls-80{fill:#5692b3;}.cls-81{fill:#abc5cd;}.cls-82{fill:#0e8ab0;}.cls-83{fill:#f9e3de;}.cls-84{fill:#f7e0d9;}.cls-85{fill:#f8e3dd;}.cls-86{fill:#f6dfd9;}.cls-87{fill:#f5e1dc;}.cls-88{fill:#fae7e2;}.cls-89{fill:#f9e2dc;}.cls-90{fill:#f5e2dd;}.cls-91{fill:#f7e2dd;}.cls-92{fill:#f7e4df;}.cls-93{fill:#f9e2db;}.cls-94{fill:#adafb0;}.cls-95{fill:#adafaf;}.cls-96{fill:#aeafb0;}.cls-97{fill:#9caab0;}.cls-98{fill:#90a7af;}.cls-99{fill:#fee099;}.cls-100{fill:#e9ce92;}.cls-101{fill:#f5d081;}.cls-102{fill:#fde3a5;}.cls-103{fill:#efdc15;}.cls-104{fill:#a3abb0;}.cls-105{fill:#9da7ae;}.cls-106{fill:#a2a9af;}.cls-107{fill:#7f8184;}.cls-108{fill:#06344e;}.cls-109{fill:#3a536f;}.cls-110{fill:#e6e7e7;}.cls-111{fill:#e6e7e8;}.cls-112{fill:#f1583d;}.cls-113{fill:#01496c;}.cls-114{fill:#044a6d;}.cls-115{fill:#38516e;}.cls-116{fill:#71879c;}.cls-117{fill:#05334d;}.cls-118{fill:#fffefd;}.cls-119{fill:#7b7a76;}.cls-120{fill:#fec549;}.cls-121{fill:#3e6075;}.cls-122{fill:#e1b65a;}</style></defs><title>frontpic</title><path class="cls-1" d="M1106.37-381.63c1-.79,2.19-.42,3.29-.42,12.54,0,25.07-.12,37.6.05,2.84,0,3.39-.84,3.38-3.5q-.12-48.93,0-97.88c1.58,0,1.3,1.34,1.44,2.24a24.65,24.65,0,0,1,.11,4v87.47c0,1.14,0,2.28,0,3.41,0,2.05.87,3,3,3a58.49,58.49,0,0,1,7.13.17,7.75,7.75,0,0,1,1.18.26,13.38,13.38,0,0,0,4.32.3h55.33c5.15,0,5.43.29,5.43,5.47,0,12.23,0,24.45,0,36.68a9.44,9.44,0,0,0,.46,4,5.07,5.07,0,0,1,.3,1.16c.08,2.58-.09,5.17,0,7.75,0,1.79.88,2.64,2.66,2.66l3.42,0c20.26,0,40.53,0,60.8.06,1.65,0,3.82-.9,4.81,1.5-8.48.05-17,.14-25.44.15q-23.27,0-46.54,0c-1.47.59-1,1.89-1,3,0,6.11-.11,12.22,0,18.33,0,2.36-.92,3.18-3.07,3.15-.83,0-1.66,0-2.49,0H1111.52c-5.44,0-5.44,0-5.44-5.38q0-37.14,0-74.27C1106.1-379.38,1105.83-380.54,1106.37-381.63Z" transform="translate(-1105.71 742.37)"/><path class="cls-2" d="M1697.86-303.33c-14.39-.39-28.77-.76-43.16-1.19q-43-1.28-86-2.61l-58.69-1.8c-20.8-.64-41.61-1.31-62.41-1.87-2.75-.07-3.15-.77-2-3.24,1.36-2.87,3-5.68,3.62-8.87a2.3,2.3,0,0,1,.18-1.39c10.28-23.6,20.74-47.12,31.17-70.65.46-1,.81-2.15,2-2.66a4.5,4.5,0,0,1,3.32.31q18.67,8.08,37.24,16.42c5.48,2.45,11.05,4.72,16.48,7.28,1.22.63,2.34,1.53,3.8,1.64,1.93.46,3.55,1.6,5.36,2.36a23.67,23.67,0,0,0,4.21,1.87c.91.4,1.8.84,2.71,1.26a21.85,21.85,0,0,0,5.93,2.45c1.33.56,2.61,1.26,3.93,1.86a23.47,23.47,0,0,0,4.39,1.92c4,2.14,8.4,3.22,12.31,5.47a24.56,24.56,0,0,0,5.62,2.37c1.08.41,2.11.94,3.15,1.43a22.75,22.75,0,0,0,4.25,1.89c.91.41,1.81.85,2.71,1.27a21.92,21.92,0,0,0,5.92,2.45c1.33.56,2.6,1.25,3.91,1.85a23.06,23.06,0,0,0,4.28,1.9c1.3.61,2.58,1.27,3.89,1.86a14.63,14.63,0,0,0,4.89,1.63,3.34,3.34,0,0,1,1.58.79c2.23,2,5.07,2.69,7.74,3.74,1.48.54,3.29.26,4.35,1.79,1.52,1.86,3.79,1.91,5.88,2.4,4.29.94,8,3.24,12,4.89q8.58,3.54,17,7.47c8.23,3.85,16.67,7.26,25,11C1695.76-305.45,1697.55-305.26,1697.86-303.33Z" transform="translate(-1105.71 742.37)"/><path class="cls-3" d="M1150.53-523.2c-5.07.15-10.15.26-15.22.48a2.08,2.08,0,0,1-2.52-1.93,168.75,168.75,0,0,1-2.74-17.47c-.2-1.61.57-2.15,2-2.54,4.89-1.36,9.72-2.92,14.62-4.22,1.89-.5,2.67-1.27,2.67-3.35,0-7.41.07-7.41-7-9.47-3.38-1-6.73-2.07-10.13-2.95-1.71-.44-2.38-1.18-2.14-3,.74-5.54,1.46-11.07,2.57-16.56.42-2,1.35-2.6,3.39-2.48,5.06.31,10.14.31,15.21.55,1.62.08,2.34-.49,2.87-2,2.56-7.3,2.61-7.29-3.79-11.64-2.83-1.92-5.61-3.91-8.5-5.73-1.48-.93-1.92-1.76-1.13-3.49,2.35-5.19,5-10.25,7.74-15.22.92-1.64,1.84-1.83,3.49-1.21,4.84,1.82,9.76,3.44,14.61,5.26,1.49.56,2.37.43,3.41-.92,4.67-6.08,4.72-6,.06-12.19-2.13-2.8-4.22-5.64-6.45-8.36-1-1.27-1.11-2.15.06-3.41a169.82,169.82,0,0,1,12.07-12.08c1.31-1.16,2.17-1.39,3.66-.19,4.1,3.32,8.4,6.4,12.53,9.69a2.21,2.21,0,0,0,3.19.11c6.51-4.45,6.55-4.4,4-11.77-1.13-3.22-2.22-6.46-3.49-9.63-.64-1.59-.62-2.56,1.06-3.51,5-2.86,10.24-5.43,15.49-7.9,1.67-.79,2.42,0,3.26,1.21,2.83,4.21,5.78,8.34,8.56,12.58,1,1.5,1.8,2.07,3.73,1.42,7.07-2.36,7.1-2.27,7-9.74-.06-3.42,0-6.84-.2-10.25-.09-1.87.4-2.8,2.4-3.17,5.49-1,11-2,16.56-2.47,1.8-.16,2.54.41,3,2.17,1.31,4.9,2.91,9.72,4.26,14.6.5,1.82,1.41,2.42,3.28,2.45,7.25.1,7.24.16,9.28-6.76,1-3.37,2.08-6.72,3-10.12.47-1.8,1.25-2.53,3.23-2.34,5.68.54,11.28,1.5,16.87,2.59,1.73.33,2,1.23,1.94,2.85-.21,5.17-.16,10.36-.37,15.53a2.62,2.62,0,0,0,2.17,3.09c7.06,2.25,7,2.32,11.31-3.82,2-2.89,4-5.77,6-8.72.87-1.33,1.69-1.79,3.3-1.05q7.76,3.59,15.22,7.74c1.81,1,1.85,2,1.22,3.73-1.79,4.74-3.4,9.56-5.19,14.3-.59,1.58-.48,2.49,1,3.59,6.17,4.51,6.12,4.58,12.16,0,2.71-2.08,5.5-4.07,8.11-6.27,1.39-1.17,2.29-1.19,3.67,0,4.24,3.82,8.24,7.86,12.08,12.07,1.32,1.44,1.06,2.34,0,3.67-3.17,4-6.17,8.06-9.34,12-1.15,1.44-1.4,2.6,0,4,1.79,1.83,2.56,4.52,4.91,5.88-.45,4.53-2.59,8.51-4.1,12.7-.1.28-.52.27-.83.24a159.85,159.85,0,0,0-12.36-17.48A107.87,107.87,0,0,0,1320-646.71c-14.2-8.55-29.79-13-46.17-14.43a97.77,97.77,0,0,0-26.9,1.63,107.33,107.33,0,0,0-41.27,17.26,105,105,0,0,0-38.85,49.3,104.75,104.75,0,0,0-6.83,30.84c-.34,4.67-.76,9.28-.15,13.94a4.45,4.45,0,0,1-1.06,2.53,37.75,37.75,0,0,0-7,18C1151.59-526.11,1151.7-524.44,1150.53-523.2Z" transform="translate(-1105.71 742.37)"/><path class="cls-3" d="M1610.17-433.83c9.56-9.61,19.09-19.26,28.72-28.81a4.67,4.67,0,0,0,1.42-5.16c-9-35.79,24.17-68.29,59.7-58.51,1.26.35,2.68.47,3.66,1.54-.39,1.38-1.54,2.18-2.48,3.12q-16.47,16.5-33,33c-2.56,2.57-2.56,2.6,0,5.16q10.32,10.35,20.67,20.67c2.52,2.52,2.53,2.51,5.43.22a2.14,2.14,0,0,1,1.11-.51c4.72-3.58,8.5-8.14,12.72-12.25,6.52-6.36,12.9-12.88,19.37-19.3,3.27-3.24,5.13-2.71,6.47,1.74,8.73,28.91-12.08,59.35-42.11,61.73a49.86,49.86,0,0,1-17.22-1.44,2.91,2.91,0,0,0-3.29.8q-11.89,12.06-23.9,24c-.68.3-1-.18-1.12-.66a22.64,22.64,0,0,0-5.27-9.61c.33-1.42,1.5-2.21,2.43-3.15q9.87-9.92,19.77-19.79a29.05,29.05,0,0,0,2.34-2.49,10.14,10.14,0,0,0-.82-13.8,9.87,9.87,0,0,0-13.76.26c-9.57,9.48-19.15,18.94-28.53,28.6a4.07,4.07,0,0,1-1.4,1.21c-3.49.09-6.64-1.1-9.72-2.56A6.89,6.89,0,0,1,1610.17-433.83Z" transform="translate(-1105.71 742.37)"/><path class="cls-4" d="M1482.57-397.19q-7.71,17.24-15.41,34.48c-5.53,12.45-11,24.94-16.51,37.4a14.8,14.8,0,0,1-.94,1.57c-5.24.67-10.5.26-15.75.25s-10.71.45-16-.27c-1-1.33-.8-2.79-.52-4.27a2,2,0,0,1,.54-.8c1,.61,1.19-.08,1.52-.86,2.67-6.28,6.45-12,9.19-18.25a11.53,11.53,0,0,1,2.44-3.56,11.89,11.89,0,0,0,3.39-6.78c1.24-3.13,2.4-6.3,4.75-8.84a14.14,14.14,0,0,0,3.49-6.68,16.11,16.11,0,0,1,3.86-7.5,11.34,11.34,0,0,0,3.42-6.88,30.75,30.75,0,0,1,4.93-9.09.54.54,0,0,1,.54.19c1.42-3.46,3.65-6.55,4.75-10.17.93-4,3.19-7.39,5.16-10.88a5.54,5.54,0,0,0-.59-7c-1.68-2.07-3.75-3.88-4.79-6.43a5.41,5.41,0,0,0-1.34-3c-1.61-1.88-1.76-3.44.87-4.47.45-.17.56-.55.69-.94a28,28,0,0,1,9.71-5.08c5.08-1.33,5.15-1.46,2-5.52-.8-1-1.39-2.33-2.75-2.86-2.52-2.69-5.18-5.29-6.42-8.92,10.5,4.09,21,8.32,31.8,11.39,8.28,2.35,16.56,4.53,24.23,8.54a59.77,59.77,0,0,1,9.2,6.32c3.26,2.58,4.76,6.15,5.85,10,.28,6.62.15,13.25.08,19.87a35.64,35.64,0,0,0,1.19,9.08,12.71,12.71,0,0,1-.18,6.15c-1,2-2.32.94-3.61.5a8.32,8.32,0,0,1-.85-.41c-2.09-1.35-4.55-1.94-6.72-3.11-.51-.25-1-.51-1.53-.73-1.86-.66-3.58-1.62-5.44-2.28-.67-.25-1.31-.53-2-.84-2-1.16-4.16-1.76-6.18-2.76a7.69,7.69,0,0,1-.76-.38c-2-1-4.15-1.69-6.13-2.75-.26-.1-.52-.22-.77-.34-2.27-.83-4.35-2.08-6.62-2.89-.54-.19-1.07-.43-1.59-.67-4-1.79-4.21-1.62-6.09,2.46C1485.44-402.55,1485-399.36,1482.57-397.19Z" transform="translate(-1105.71 742.37)"/><path class="cls-2" d="M1617.8-561.25a12.18,12.18,0,0,1-3.37,3.18c-.83-.81-.42-1.79-.43-2.64,0-12-.06-24,0-36.06a5.81,5.81,0,0,0-2.13-4.78c-20.08-18.47-27.55-41.3-20.58-67.56,7-26.53,25-42.95,52-48.58,17.31-3.61,33.77-.25,48.81,9.29a5.87,5.87,0,0,1,.89.84c0,2.77-1.83,4.64-3.26,6.71a15.38,15.38,0,0,0-3.57,6.78,40,40,0,0,1-5.64,11c-3-.51-2.41-2.53-1.8-4.47.55-1.76,1-3.36-1-4.6-2.53-1.52-3.29-1.43-5.1,1-1,1.36-1.69,3.25-4.06,2.51s-2.46-2.5-2.53-4.45c-.13-3.1-1.46-4.18-4.52-4-1.19.08-1.58.8-1.87,1.74a16.91,16.91,0,0,1-1,2.94,2.8,2.8,0,0,1-2.74,1.69,2.75,2.75,0,0,1-2.67-1.77,11.63,11.63,0,0,1-.67-2.07c-.44-1.91-1.37-2.77-3.53-2.39s-3.35,1-3.21,3.28a8.61,8.61,0,0,1-.15,2.48,3,3,0,0,1-5,1.68,6,6,0,0,1-1.4-1.66c-1.11-2-2.49-2.46-4.61-1.31s-2.54,2.54-1.57,4.59a8.52,8.52,0,0,1,.51,1.47,3.22,3.22,0,0,1-1.4,3.52c-1.2,1-2.26.46-3.41-.23-1.43-.86-2.53-2.7-4.63-1.78-2.69,1.17-3.1,3.51-1.13,6.28.93,1.3,1.86,2.58.66,4.2s-2.59,1.52-4.19,1c-.3-.1-.6-.16-.89-.28-2.23-.9-3.47.1-4.43,2.07-.9,1.81-.69,3.08,1.12,4.15,1.22.71,2.63,1.39,2.75,3.12.15,2.28-1.59,3.81-4.4,3.49-2.1-.24-3.41.1-3.78,2.43s-.22,3.87,2.49,4.36c1.81.32,3.39,1.21,3.45,3.4s-1.64,2.92-3.42,3.34c-2.34.55-2.78,2.11-2.57,4.23.23,2.43,1.82,2.65,3.75,2.64,1.41,0,3-.25,4,1.21,1.23,1.79.81,3.42-1.8,5-2.25,1.41-2.61,2.84-1.27,5.1,1,1.65,2,2.23,3.78,1.39a8.84,8.84,0,0,1,2.38-.71,2.87,2.87,0,0,1,3,1.18,2.82,2.82,0,0,1,.22,3.21,5.68,5.68,0,0,1-.65,1.06c-1.51,1.7-2.33,3.19-.23,5.28s3.52,1.36,5.27-.19a3.21,3.21,0,0,1,4.27-.46c1.47,1,1.3,2.41.91,3.9s-1.61,3.13.12,4.58,3.75,2.12,6,1a1.53,1.53,0,0,1,1.17,1.35c.2,2.8-1.65,4.68-3.07,6.75a15.12,15.12,0,0,0-3.66,6.83,22.71,22.71,0,0,1-2.31,5.39c-4.36,8.1-8.45,16.34-12.82,24.44A5.89,5.89,0,0,0,1617.8-561.25Z" transform="translate(-1105.71 742.37)"/><path class="cls-5" d="M1301-323.18c-1.07-1-2.38-.5-3.56-.5-21.94,0-43.89-.07-65.83,0-2.53,0-3.64-.63-3.3-3.27.36-2.84-.61-5.79.62-8.57,1.45-1.44,3.3-1,5-1,20.83,0,41.66-.41,62.48.12,12.68.32,26.32-7.25,26.69-25.88,0-1.14,0-2.28,0-3.42V-518.92a45.67,45.67,0,0,0-.35-6.51c-2-14.05-11.34-22.29-25.58-22.5-5.18-.08-10.37,0-15.55,0a9.32,9.32,0,0,1-3.67-.44c-1.7-1.05-1.43-2.78-1.48-4.36a44.59,44.59,0,0,1,0-5.17,6.25,6.25,0,0,1,.56-3.3,3,3,0,0,1,2.54-.93c7.85.15,15.73-.58,23.57.48,14.15,1.92,24.29,9.33,30.52,22.15a35.58,35.58,0,0,1,3.16,15.28c-.19,7.71-.06,15.44,0,23.16a15.48,15.48,0,0,0,.47,5.2c.37,7.37.14,14.74.12,22.11.06,4.11.13,8.22-.08,12.32a31.48,31.48,0,0,0,0,11.73c.26,8.65.29,17.3,0,26-.77,2.88-.42,5.8-.29,8.71a20.19,20.19,0,0,0-.27,5.26c.12,4.06-.1,8-2.06,11.74a10.58,10.58,0,0,0,.26,9.91,17.65,17.65,0,0,1,1.81,8.69c-.09,7.55,0,15.11,0,22.67-.85,16.09-15.06,31.84-30.18,33.34-1.12.09-2.26-.19-3.33.32Z" transform="translate(-1105.71 742.37)"/><path class="cls-6" d="M1689.19-701.29q1.9-3.13,3.79-6.27c12,7.58,20.26,18.2,25.37,31.28,15.9,40.65-10.62,85.16-54,90.8a57.33,57.33,0,0,1-17.64-.15,5.84,5.84,0,0,0-5.72,1.91c-7.67,7.56-15.46,15-23.21,22.47-1.29-1.92.31-3.23,1-4.66,4.66-9.07,9.37-18.12,14.05-27.18a5.2,5.2,0,0,0,.31-1.19c1.5-2.15,2.26-4.71,3.75-6.87,1.2-2,3-3.64,3.09-6.19.69-2.08,1-4.49,3.78-4.94,2.23.35,2,2.14,1.94,3.62,0,2.2.3,3.83,3,4.15,2.39.28,3.42-.77,3.92-2.91.37-1.57,1.1-3,3-3.07s3,1.23,3.47,2.92c.59,2,1.41,3.44,3.88,3.05,1.9-.3,3.13-1,3-3.17,0-.51,0-1,0-1.55,0-1.55.38-2.85,2.1-3.4s3,.18,4,1.56,1.76,3.71,4.52,2.31,3.2-2,2.14-5.07c-.55-1.61-1.21-3.14.62-4.43s3.09-.46,4.53.51c2.78,1.86,4,1.58,5.86-1,1.46-2.1-.45-3.22-1.31-4.59s-1.21-2.36-.27-3.7a3.14,3.14,0,0,1,3.83-1.19,6.53,6.53,0,0,1,1.18.39c2.38,1.26,3.55.12,4.54-2,.81-1.75.56-2.94-1.07-3.92a7.78,7.78,0,0,1-1.92-1.56,2.88,2.88,0,0,1,1.33-4.9,6.4,6.4,0,0,1,2.46-.24c2.33.15,3.32-.91,3.58-3.23s-.42-3.29-2.61-3.67c-1.79-.31-3.5-.92-3.49-3.24s1.73-3,3.46-3.37c2.56-.61,2.92-2.22,2.47-4.44-.35-1.79-1.14-2.87-3.16-2.46a7,7,0,0,1-.92.1c-1.85.12-3.23-.47-3.89-2.36s.37-2.94,1.76-3.84c1.73-1.1,3.37-2.12,2.08-4.66-1-2-2.19-3-4.43-2.1a11.48,11.48,0,0,1-2.4.64,3,3,0,0,1-2.92-1.38,2.4,2.4,0,0,1,0-2.89c.16-.27.32-.54.5-.79,1.29-1.77,2.76-3.34.51-5.64s-3.77-1-5.63.3c-.86.61-1.94,2-3,.13,1-4,4.25-6.93,5-11C1687-696.57,1687.7-699.13,1689.19-701.29Z" transform="translate(-1105.71 742.37)"/><path class="cls-7" d="M1336.44-423.22c-.25-9-.28-18,0-27,1.65-1.82,4.11-1.71,6.16-2.56s4.47-1.54,6.71-2.3c5.68-1.65,11.11-4,16.68-6,1-.35,2-.9,3-1.23a2.1,2.1,0,0,1,1.77.28c.57,1.44-.45,2.33-1.18,3.3-2.23,3-4.42,6-6.78,8.9-1.38,1.7-1.3,2.82.8,3.79,4,1.82,7.67,4.1,11.63,5.9,3.6,1.65,3.88,2.56,1.51,5.75-2.52,3.42-5.17,6.74-7.77,10.1a4.36,4.36,0,0,0-.49,5.37c10.9,20.25,21.34,40.74,32,61.12,5.18,9.9,10.55,19.71,15.3,29.84.16.35.42.36.73.3,1.41.62.42,2.34,1.45,3.13.94,1.19,2.28.71,3.45.72,9.44,0,18.89,0,28.33,0l-.48.83-60.47-.13c-3.25-6.3-6.1-12.78-9-19.26-.8-1.81-2.41-3.44-1.79-5.72,1.88-1.4,4.32-1,6.18-1.83-2.1.29-4.25,1.43-6.65.91a4.55,4.55,0,0,1-1.72-2.13c-5.27-10.61-9.94-21.51-15-32.2a7,7,0,0,1-.6-2.07,8.21,8.21,0,0,1,.79-3.59,13.89,13.89,0,0,0-7.82-17.45c-1.32-.59-2.74-1-3.39-2.49a76,76,0,0,1-2.46-9.55c-1.42-6.52-3.65-7.63-9.66-4.85A1.33,1.33,0,0,1,1336.44-423.22Z" transform="translate(-1105.71 742.37)"/><path class="cls-8" d="M1505.09-613.59c-4.24-8.06-8.52-16.1-12.68-24.2a6,6,0,0,0-4.27-3.43,51.61,51.61,0,0,1-38.53-53.69c1.5-23.3,20.18-43.6,43.72-46.93a45.7,45.7,0,0,1,9.91-.42c3.89.52,4,.52,3.91,4.47-.05,3.15.46,6.33-.39,9.45-1,1.36-2.45,1.1-3.83,1-1.08-.06-2.14-.59-3.24-.16-14.84.68-24.41,15.53-20.24,29a21.22,21.22,0,0,0,8.17,11.42,5.76,5.76,0,0,1,2.75,5.49c-.11,2,.09,3.94,0,5.9a11.48,11.48,0,0,0,2.18,8.19c.6,2.12,1.38,4.21.93,6.48-.15.87-.48,1.7-.58,2.58,0,.29,0,.57,0,.85-.33,2.6,1.32,3.72,3.38,4.53,2.3,1.61,4.73,2.37,7.52,1.34,1-.36,2-.46,2.59.83.59,5.8.12,11.61.29,17.42,0,5.11.11,10.22-.09,15.32C1506.44-616.59,1507.24-614.55,1505.09-613.59Z" transform="translate(-1105.71 742.37)"/><path class="cls-9" d="M1467.7-562c-.07,1.1-1.3,2.6,1.53,2.11s4.8,1.67,5.23,4.3c1.72,10.42.18,20.2-6.73,28.6a12.29,12.29,0,0,1-4.35,3.44c-2.5,1.11-3.3,2.84-3.85,5.38A50.12,50.12,0,0,1,1448.84-496a29.44,29.44,0,0,0-1.73,2.56c-2.23,3.93-5.95,6.2-9.58,8.56a1.31,1.31,0,0,1-1.71,0,1.84,1.84,0,0,1,.54-2.5c2.1-1.5,3.63-3.66,6-5.21-6.63,0-13.07-.32-19.52.09a36.25,36.25,0,0,0-3.64-.09c-2,.3-1.92-1.46-2-2.77-.14-4.34.1-8.67-.2-13-.14-16.61,0-33.21,0-49.81a6,6,0,0,1,.83-3.86c1.35-1,2.94-.86,4.48-.86q20.48,0,41,0C1464.8-563,1466.41-563.18,1467.7-562Z" transform="translate(-1105.71 742.37)"/><path class="cls-6" d="M1494.4-407.7l6.75,2.84a23.72,23.72,0,0,1-1.66,3.73c1.1-1,.89-2.78,2.38-3.31l6.21,2.78c.15,2.46-1.81,4.18-2.31,6.41,1.32-1.9,1.63-4.34,3.25-6.08,2.08.93,4.31,1.51,6.17,2.91.73,1.58-.71,2.65-.84,4,.87-1,.94-2.68,2.38-3.35a21.4,21.4,0,0,1,5.9,2.57c.64,2.6-1.74,4.21-1.85,6.17,1.17-1.49,1.24-4.09,3.17-5.61l6.57,2.85c0,1.34-.94,2.35-1.26,3.76.8-1.22.81-2.71,2.11-3.4l2.79,1.05c1.63-.42,2.7.37,3.54,1.65.15,2.29-1.46,4-1.91,5.94,1-1.64,1.25-3.9,2.94-5.34,2.6-.5,4.43.93,6.22,2.48.62,1.7-.55,3-1,4.58,1-1.2.88-3,2.29-3.93,2.43-.05,4.36,1.11,6.2,2.51.31,2.64-1.45,4.61-2.25,7,1.54-1.9,1.53-4.54,3.3-6.23a4.11,4.11,0,0,1,2.65.3c1.4.81,3.16,1.08,4,2.73.16,1.48-.92,2.59-1.26,4,.88-1.21.88-2.92,2.41-3.59a6.59,6.59,0,0,1,5.7,2.54c.53,2.67-1.32,4.61-2,6.81,1.59-1.75,1.32-4.74,3.66-6.17a9.25,9.25,0,0,1,6.18,2.53c.56,1.8-.91,3-1.34,4.63,1.1-1.23,1.21-3,2.6-3.92a8.07,8.07,0,0,1,6.33,3c-.25,2.37-2,4.16-2.59,6.32,1.55-1.87,1.63-4.63,3.68-6.25,2.37.48,4.68,1.08,6.37,3,.05,1.43-.91,2.48-1.48,4,1-1.22,1.26-2.75,2.6-3.36,1.61-.31,2.88.72,4.31,1.12a2.88,2.88,0,0,1,1.61,1.53c.31,2.54-1.83,4.26-2.22,6.73,1.3-2.11,1.56-4.7,3.66-6.17,1.94-.2,3.48.81,5.07,1.67a2.65,2.65,0,0,1,.85,1c.38,1.43-.53,2.54-1,3.92.92-1.26,1.14-2.92,2.68-3.54a10.61,10.61,0,0,1,5.67,2.59c.63,2.61-1.69,4.29-2,6.7,1.32-2,1.31-4.73,3.82-5.78,2.24.16,4.3.71,5.74,2.61.34,1.39-.67,2.47-.92,3.77.87-1.34,1.06-3.29,3.22-3.29a4.85,4.85,0,0,1,1.46.44c3.93,1.76,4,2.06,2.39,6.11-.15.38-.25.78-.41,1.15a4.32,4.32,0,0,0-.42,1.08c0,.15-.26.27-.06.44,0-.19.1-.38.16-.59.15-.4,0,.09.12-.3,2.25-5.91,2.73-6.1,8.39-3.37,2,1.8.26,3.52-.14,5.31,1.07-1.2.73-3.34,2.73-3.82a11.8,11.8,0,0,1,5.68,2.58c.49,2.57-1.38,4.38-2,6.44,1.79-1.55.91-5.73,4.93-5.47a5.87,5.87,0,0,1,2.62,1.64l1.61.77c1.38,1.61-.41,2.7-.59,4,1.23-.68.72-3.58,3.31-2.8l4.25,1.87c1.8,2.73-1.06,4.46-1.31,6.72.62-1.11,1-2.37,1.63-3.56.45-.94.71-2.27,2.29-2l5.38,2.6c.82,1.6-.69,2.63-1,4,1-1,1-2.69,2.48-3.31l5.55,2.3c1.33,2.65-1.33,4.27-1.61,6.53.67-1.38,1.36-2.75,2-4.15.41-.87.86-1.68,2.06-1.31l4.9,2.09c1.36,1.42-.1,2.59-.28,3.87.9-.92.89-2.88,2.86-2.71,5,2.56,4.94,2.56,2.83,7.85-.34.85-1.4,1.63-.46,3a12.39,12.39,0,0,0,2.77-5.29c.39-1.22.71-2.77,3-1.75,14.31,6.44,28.7,12.74,43,19.1.16.07.26.27.69.73l-34.45-1.27c-7.19-3.76-14.71-6.77-22.16-9.93-3.8-1.6-7.48-3.46-11.25-5.11-7.72-3.39-15.46-6.71-23.19-10.05a7.69,7.69,0,0,0-1.19-.31,55.32,55.32,0,0,1-5.62-2.51c-1-1.63-3.13-.69-4.36-1.83-2.62-1.4-5.57-2.13-8.09-3.76a1.28,1.28,0,0,0-1.23-.61,39.15,39.15,0,0,0-5-1.86,7.25,7.25,0,0,1-3.71-1.84c-1.43-.69-2.9-1.3-4.37-1.89a7.21,7.21,0,0,1-3.72-1.84l-6.25-2.51a3.52,3.52,0,0,1-2.45-1.22c-1.44-.69-2.9-1.31-4.39-1.89l-3.06-1.24c-1.75-1.13-3.79-1.61-5.64-2.5-4.09-2-8.66-2.88-12.41-5.58-1.45-.66-2.9-1.31-4.38-1.88a7.18,7.18,0,0,1-3.71-1.84c-2.07-.85-4.16-1.66-6.23-2.51a3.57,3.57,0,0,1-2.48-1.22c-1.43-.69-2.9-1.3-4.38-1.89-2-.4-3.68-1.7-5.55-2.49-1.06-.4-2.1-.83-3.16-1.24-9.1-3.32-17.76-7.69-26.65-11.51-9.35-4-18.62-8.25-27.94-12.33a11.47,11.47,0,0,0-2.71-.47c1.44-3.41,3.09-6.74,4.28-10.23,1-2.83,2.37-3.2,4.7-1.72.52.33,1.08.59,1.62.88.18,2.49-1.62,4.28-2.27,6.48C1492.47-403.52,1492.4-406.22,1494.4-407.7Z" transform="translate(-1105.71 742.37)"/><path class="cls-10" d="M1507.65-741.8c19.55,2.7,33.26,13.36,40.81,31.33a50.91,50.91,0,0,1-28.86,67.27,7.68,7.68,0,0,0-5.17,5.39c-2.33,7.51-5,14.92-7.48,22.36-1.68-.3-.88-1.63-.9-2.46-.08-5.15,0-10.3,0-15.44,0-5.95,0-11.89,0-17.83a4.63,4.63,0,0,1-.13-1c.76-2,3.94-2.39,3.36-5.22a5.55,5.55,0,0,0-.32-1.66c-.25-.84-.55-1.66-.73-2.53a5.29,5.29,0,0,1,0-1.38,24.91,24.91,0,0,1,1.38-4.53,12.59,12.59,0,0,0,2.2-7.92c-.06-2,.11-4,0-5.9-.19-2.65.89-4.42,3-6a22.34,22.34,0,0,0-3.62-37.77c-1.56-.8-3.75-.82-4.42-3,0-3.78,0-7.56.05-11.34C1506.69-740.26,1505.92-741.61,1507.65-741.8Z" transform="translate(-1105.71 742.37)"/><path class="cls-1" d="M1359.62-606.65a115.5,115.5,0,0,1,4.77-13c3.34-5.73,7-11.17,12-15.67,1.7.22,1.37,1.66,1.35,2.62-.09,3.94.49,7.82.72,11.73.28,4.86,3.34,8.21,7.5,8.21a7.88,7.88,0,0,0,8-8.14c.08-7.83.65-15.68-.38-23.5a3.08,3.08,0,0,1,.2-2.11,42.93,42.93,0,0,1,11.71-3.25c2.62-.95,3.37.5,3.42,2.74.12,5,0,9.94,0,14.91,0,7.66.23,15.33-.07,23-.25,6.19,1.57,10.76,7.66,13a2.34,2.34,0,0,1,.72.93c.33,6.74,1,13.49-.35,20.2-1.65,1.19-3.55.71-5.35.75-3.17.09-6.34,0-9.51.06a5.44,5.44,0,0,1-1.21,0c-12.69-.09-25.37,0-38,0-1.52,0-3.11.27-4.53-.61a4.15,4.15,0,0,1-.94-3.18c.1-7.95-.57-15.92.63-23.83C1358.24-603.49,1358.17-605.33,1359.62-606.65Z" transform="translate(-1105.71 742.37)"/><path class="cls-11" d="M1428.06-649.78a39.3,39.3,0,0,1,11.74,3.16c.94.63.87,1.53.74,2.49-1,7.52-.37,15.08-.42,22.62a8.89,8.89,0,0,0,3,6.94,7.28,7.28,0,0,0,7.83,1.41,6.92,6.92,0,0,0,4.7-6.67c.18-4.24-.07-8.49.14-12.72.06-1.14-.56-3.2,2-2.75,10.09,9.67,16.13,21.36,17.59,35.33.49,7.87.08,15.74.22,23.61a1.82,1.82,0,0,1-1.78,2.08,20.1,20.1,0,0,1-3.1.13q-24.42,0-48.83,0c-1.43,0-2.92.24-4.24-.6-1-1.31-.46-2.81-.47-4.21-.07-5.29,0-10.57,0-15.85a1.69,1.69,0,0,1,.35-1.08,5.8,5.8,0,0,1,1.81-1.17c4.14-1.9,5.91-5.19,5.91-9.67q0-18.74,0-37.49a25.71,25.71,0,0,1,.14-3.72C1425.51-649.61,1426.36-650.34,1428.06-649.78Z" transform="translate(-1105.71 742.37)"/><path class="cls-12" d="M1431.64-351.12c-2.69,3-3.82,6.81-5.63,10.26s-4.18,6.9-5.54,10.73c-.22.62-.4,2.27-1.94,1.25-1.08-1.3-.61-2.71-.33-4.14,5.75-29,11.37-57.94,17-86.92,3.57-18.19,7.1-36.39,10.74-54.58.4-.73.58-1.76,1.82-1.48,3,6.69,8.21,11,15,13.58q3.4,4.35,6.83,8.69c1.72,1.22,2.55,3.18,3.88,4.73s.89,2.59-.83,3.3a13.4,13.4,0,0,0-2.47,1.27c-3.7.88-6.72,3.09-9.92,5a2.69,2.69,0,0,1-1,.66c-2,.81-2.46,1.83-.79,3.55.85.88,1.83,1.84,1.82,3.27,2.1,2.76,4.12,5.59,6.33,8.26,1.2,1.45,1,2.62.25,4.17-1.94,4.17-4.77,7.9-6,12.42-2.08,3.21-3.13,7-5.59,10l-5,9.33c-.41,2.58-1.94,4.63-3.15,6.83-1.78,2.21-3.32,4.53-3.71,7.42-1.48,2.18-2.24,4.74-3.75,6.89-2.44,2.45-3.09,5.93-4.94,8.71C1434.39-355.38,1432.85-353.33,1431.64-351.12Z" transform="translate(-1105.71 742.37)"/><path class="cls-5" d="M1150.53-523.2a41.62,41.62,0,0,1,8.81-24.86c.24-1.67,1.43-2.68,2.58-3.73a39.93,39.93,0,0,1,25.87-10.37c6.38-.27,12.78-.08,19.17,0a4,4,0,0,1,2.91.82,5.67,5.67,0,0,1,.65,3.33,62.3,62.3,0,0,1,0,6.41c0,1.22-.14,2.47-1.38,3.2-1.9.76-3.89.43-5.84.5-6.2.22-12.46-.62-18.61.5-12.66,2.32-20.3,11.32-20.74,24.22,0,1.34,0,2.69,0,4q0,65.73,0,131.46c0,1.82.43,3.76-.87,5.39-3.31.05-6.62.07-9.92.17-1.5.05-2.05-.63-2-2,0-.82,0-1.66,0-2.48q0-46.59,0-93.19c0-1.16.57-2.48-.54-3.5l-.09-.16a4.83,4.83,0,0,1-1-3.18c0-6.46,0-12.92,0-19.39a5.91,5.91,0,0,1,1-3.49A104.61,104.61,0,0,0,1150.53-523.2Z" transform="translate(-1105.71 742.37)"/><path class="cls-13" d="M1595.25-515.31c-.29,1.13-.35,2.06,1.33,1.82,2.6-.38,3.74,1.5,4,3.43.94,7.77.81,15.78-5.22,21.43-4.07,3.82-6.83,7.71-8.21,13-1.28,5-4.46,9-7.45,13.11a9.2,9.2,0,0,0-.62,1.21c-4.64,5.7-10.9,9-17.55,11.59-4.45,1.74-4.7,2-3.54,6.72a2.16,2.16,0,0,1,0,.91c-1,1.11-2.1.56-3.19.13-6.65-2.07-13.29-4.22-20-6.19-1.79-.52-2.53-1.29-2.45-3.19.15-3.49.08-7,.11-10.48,1.59-.27,2.41,1,3.41,1.8a48.26,48.26,0,0,0,15.25,8.83c3.58,1.19,4,.92,4-2.77.16-19.06,1-38.12.65-57.18,0-1.6-.36-3.37,1.16-4.63a9.17,9.17,0,0,1,4.24-.57q14.68,0,29.35,0C1592.17-516.3,1593.89-516.6,1595.25-515.31Z" transform="translate(-1105.71 742.37)"/><path class="cls-14" d="M1641.13-343l-5.52-2.25a16.13,16.13,0,0,0-2.56-1.46,1,1,0,0,1-.3-.05c-5.32-1.95-5.32-1.95-7.67,3.69-1.16,0-.86-.76-.68-1.43,0-.1,0-.2,0-.3-.1-1.75,2.32-3.15,1.35-4.58-.85-1.24-2.89-1.68-4.4-2.47a1.93,1.93,0,0,1-1.18-1.14,20.65,20.65,0,0,1-.34-5.87c0-9.21-.24-18.42.06-27.62.22-6.59-1.24-11.7-8.37-13.53-1.21-1.24-1.08-2.84-1.09-4.36,0-7.19,0-14.38,0-21.56,0-1.49-.29-3.14,1.2-4.25l9.74,2.48a3.68,3.68,0,0,1,2.73.11,53.27,53.27,0,0,1,15.43,7.19,3.64,3.64,0,0,1,1.79,2.06c3.61,2.58,4.79,6.58,6.13,10.48a9.06,9.06,0,0,0-.59,4.25q0,31.5,0,63a4.18,4.18,0,0,1-2.53-1.09C1643.51-342.67,1641.75-341.42,1641.13-343Z" transform="translate(-1105.71 742.37)"/><path class="cls-15" d="M1556.68-515.31c0,13.13.38,26.26-.13,39.37-.32,8.35-.38,16.69-.45,25,0,1.83-.6,2-2.21,1.55-8.31-2.15-15.18-6.72-21.39-12.44-4.8-6.33-8.74-13.07-10-21.06-.18-1.14-.93-1.53-1.75-1.95-9.15-4.71-10.74-16.6-9.81-24.68a4.64,4.64,0,0,1,2.23-3.59c1-.6,1.23-1.27.66-2.26a4,4,0,0,1,3.17-.95q18.42-.08,36.85,0a6,6,0,0,1,1.83.29A2.19,2.19,0,0,1,1556.68-515.31Z" transform="translate(-1105.71 742.37)"/><path class="cls-1" d="M1510.62-545.22a42.47,42.47,0,0,1,13.78-27.26c1.71.37,1.36,1.83,1.41,3,.14,2.78,0,5.57.07,8.36a6.21,6.21,0,0,0,2.42,5.12,5.42,5.42,0,0,0,8.51-2.15,14.17,14.17,0,0,0,1-5.77c0-4.75,0-9.5,0-14.25,0-1.1-.31-2.31.9-3.07,2.92-1.54,6.22-1.64,9.34-2.46,2,.65,1.51,2.45,1.52,3.84.09,8.17.27,16.36,0,24.52-.23,6.1.52,11.37,6.89,14.08,1,5.41,1.41,10.81-.27,16.18-1.26.94-2.74.86-4.18.86q-18.5,0-37,0c-4.41,0-4.6-.21-4.53-4.52C1510.47-534.27,1510.07-539.75,1510.62-545.22Z" transform="translate(-1105.71 742.37)"/><path class="cls-16" d="M1554.83-441.93c1.06-.12,2.23.39,3.14-.56,1.19-1.5,3-1.63,4.67-2.21,4-1.4,8-2.61,12.12-3.69,2.51-.67,3.52-1.95,3.52-4.57,0-2.94-.73-6,.76-8.82l.64-.71c0,3.1.25,6.22,0,9.29-.77,9.11,6.22,13.31,12.52,15.65.78.29,1,0,1.37-.64.64-1,1.52-.79,2.32-.05a15,15,0,0,0-.9,5.78q0,13.83,0,27.64c0,1.63.23,3.34-.89,4.78a5.22,5.22,0,0,1-3.28.65q-15.61,0-31.23,0c-1.22,0-2.5.16-3.5-.83q0-18.9,0-37.81C1556.08-439.47,1556.27-440.95,1554.83-441.93Z" transform="translate(-1105.71 742.37)"/><path class="cls-11" d="M1556.1-525.38q0-8,0-16l.29-.48c4.64-2.42,5.85-6.35,5.7-11.37-.28-8.89-.12-17.79,0-26.68,0-1.38-.55-3.19,1.53-3.83,3.26,1,6.82.87,9.89,2.58a2.92,2.92,0,0,1,.58,2.62c-.56,5.15-.18,10.32-.25,15.49a11.42,11.42,0,0,0,.56,3.66c.94,3,3,4.61,5.56,4.51a6.12,6.12,0,0,0,6-4.91c.7-2.74.2-5.56.41-8.34.1-1.38-.6-3.19,1.52-3.82a42.33,42.33,0,0,1,13.08,25.49c.53,6.59.08,13.19.25,19.79,0,1.45-.74,2-2,2.25a13.68,13.68,0,0,1-2.47.17q-18.29,0-36.57,0a6.73,6.73,0,0,1-3.61-.64Z" transform="translate(-1105.71 742.37)"/><path class="cls-17" d="M1228.25-298.86q0,5.91,0,11.8c-1,.56-2,.3-3,.3H1109.52c-3.43,0-3.53,0-3.41-3.57.1-2.86-1.28-6.53.61-8.35,1.72-1.66,5.33-.48,8.11-.48q55,0,110.07,0C1226-299.16,1227.18-299.47,1228.25-298.86Z" transform="translate(-1105.71 742.37)"/><path class="cls-18" d="M1593.93-400.41q0-17.64-.06-35.29c0-1.38-.09-2.81,2-2.54a97.93,97.93,0,0,0,14.29,4.41c1.62.78,1.19,2.37,1.48,3.67q-.08,14.31-.11,28.62a4.9,4.9,0,0,0,.46,1.42,4.56,4.56,0,0,1,.38,2.42c0,9.41,0,18.82,0,28.24,0,3.61-1,6.75-4.15,8.86-1.49,1-3.09,1.78-4.93.8l-5.17-1.94a1.25,1.25,0,0,1-1.41-.54l-1.45-1.1a4.85,4.85,0,0,1-2.08-3.94c-.08-9.74,0-19.48,0-29.21C1593.14-397.88,1593.07-399.24,1593.93-400.41Z" transform="translate(-1105.71 742.37)"/><path class="cls-19" d="M1467.7-562H1418c-.73.11-1-.4-1.23-.94-.58-3-.24-6.05-.28-9.08.14-1,.1-2,1.11-2.65,20.6-.12,41.2,0,61.81-.06a2.94,2.94,0,0,1,1.51.26,5.46,5.46,0,0,1,4.8,5.56,5.84,5.84,0,0,1-4.16,6.19c-3.21,1.16-6.55.44-9.83.61C1470.38-562,1469-562,1467.7-562Z" transform="translate(-1105.71 742.37)"/><path class="cls-20" d="M1350.25-323c-.17,9.07.14,18.14.62,27.2.16.68-.15.88-.77.75-1.76-5.05-4.41-9.7-6.91-14.39a17.9,17.9,0,0,1-2.39-10,5.67,5.67,0,0,0-.51-3.61,84.94,84.94,0,0,1-.93-15.53c0-.77,0-1.54,0-2.3.29-11.53-.74-23-.69-34.55a10.54,10.54,0,0,1,.53-4.56,1.21,1.21,0,0,1,1.26-.72c3,.61,6.14.75,8.86,2.39.74,1.34.52,2.81.63,4.24.75,10.18.54,20.39.73,30.58.12,1-.22,1.91-.16,2.87,0,4.52,1,9,.66,13.51C1351.06-325.7,1351.2-324.24,1350.25-323Z" transform="translate(-1105.71 742.37)"/><path class="cls-20" d="M1360.63-385.36l17,36.21a1.67,1.67,0,0,1,.69,1.31c2.49,6.73,5.86,13,8.8,19.58a13.77,13.77,0,0,1,1.66,5.22.89.89,0,0,1,0,.51c-.69,4.81-.12,9.64-.3,14.45,0,.83,0,1.65,0,2.47,0,.48,0,1.14-.68,1.08s-.5-.81-.81-1.19a182.18,182.18,0,0,0-8.11-17.41c-3-3.74-4.28-8.42-6.44-12.61-1.59-3.11-3-6.32-4.56-9.47-.28-.56-.53-1.12-.77-1.69-4-9.54-8.63-18.8-12.93-28.21-.63-1.38-1.66-2.67-1.25-4.37C1355.36-381.58,1357.5-384.13,1360.63-385.36Z" transform="translate(-1105.71 742.37)"/><path class="cls-21" d="M1393.8-646.46a18.57,18.57,0,0,1,1.2,7c-.07,5.91,0,11.81,0,17.72s-3.6,10-9,10c-5.07,0-8-3.88-8.52-9.79-.41-4.58.15-9.24-1-13.75,2-2,1-4.44,1.12-6.7a8.89,8.89,0,0,1,5.77-8.28c3-1.14,5.63-.37,8,1.52C1392.19-648,1393-647.22,1393.8-646.46Z" transform="translate(-1105.71 742.37)"/><path class="cls-19" d="M1457.71-635.3c-1.6.27-1.09,1.54-1.1,2.47,0,3.82,0,7.65,0,11.48,0,6-2.94,9.53-8,9.63-5.4.09-9.39-3.54-9.31-9.31.12-8.23-1-16.52.79-24.69.06-.27-.14-.6-.22-.9,1.23.08,1.73-1,2.46-1.63,2.66-2.44,5.66-3.33,9.06-1.78a8.57,8.57,0,0,1,5.28,7.69C1456.77-640,1455.74-637.39,1457.71-635.3Z" transform="translate(-1105.71 742.37)"/><path class="cls-21" d="M1510.62-545.22c0,5.68.09,11.36,0,17,0,2,.4,2.94,2.71,2.93,14.25-.12,28.51-.1,42.77-.13v.08a11.77,11.77,0,0,1,0,9.9l-42.25.07c-2.07,0-4.14.07-6.2-.08-3.31-.23-5.08-2.08-5.08-5.07,0-2.78,1.75-4.68,5-4.73,2.15,0,2.59-.84,2.55-2.76-.1-4.65,0-9.31,0-14C1510.07-543,1509.83-544.23,1510.62-545.22Z" transform="translate(-1105.71 742.37)"/><path class="cls-19" d="M1556.07-515.4l0-9.9c13.84,0,27.68-.06,41.52,0,2.54,0,3.4-.65,3.32-3.27-.17-6,0-12,0-18,1.09,2.46.55,5.07.64,7.62.11,2.79.09,5.58,0,8.37s-.68,5.7,4,5.48c2.42-.11,3.82,2.48,3.63,5-.21,2.87-2.24,4.39-5,4.58-3,.2-6,.1-9,.14h-38.57A4.28,4.28,0,0,1,1556.07-515.4Z" transform="translate(-1105.71 742.37)"/><path class="cls-22" d="M1416.77-595.59c-5.41-.79-8.7-4.59-8.71-10.21,0-13.63,0-27.26,0-40.9,0-1.93-.21-3.3-2.58-3a4.19,4.19,0,0,0,3.56-3.6c.79-3.68,3.85-5.59,7.68-5.7,1,1.12.87,2.5.87,3.83q0,27.88,0,55.77C1417.62-598.09,1417.79-596.7,1416.77-595.59Z" transform="translate(-1105.71 742.37)"/><path class="cls-19" d="M1428.06-649.78c-2.19,0-2,1.5-2,3q0,20,0,40c0,6.53-2.32,9.51-8.7,11.24a4.32,4.32,0,0,1-.28-2.43q0-29.29,0-58.58a4.11,4.11,0,0,1,.29-2.42c3.87.1,7.05,2.28,7.82,6A3.6,3.6,0,0,0,1428.06-649.78Z" transform="translate(-1105.71 742.37)"/><path class="cls-7" d="M1339.71-380.47c-.41,11.68.78,23.33.55,35,0,1.65,0,3.31-.08,5-1.86,1.95-4.62,1.25-6.47,2.28,2,.09,4.09-1.82,6.49-.62-.31,5.26,1.22,10.51.09,15.78l-33.73-.08a.38.38,0,0,1,.1-.62c12.85-3.29,22.1-10.79,27.09-23.25a40.77,40.77,0,0,0,2.31-9.29c.35-8,0-16,.2-24.05,0-1-.84-2.87.87-3C1338.59-383.49,1339.65-382.17,1339.71-380.47Z" transform="translate(-1105.71 742.37)"/><path class="cls-23" d="M1368.33-345.52a214.15,214.15,0,0,1,10.5,22.39l-28.58.12q-.26-9.08-.49-18.14c1.82-1.69,4.12-1.84,6.42-2,1.81.18,2.26,1.58,2.69,3a18.36,18.36,0,0,0,.64,2.07c.21.48.48,1.06,1,1,.83-.1.79-.87.74-1.47-.15-1.81-1.18-3.61,0-5.44A8.7,8.7,0,0,1,1368.33-345.52Z" transform="translate(-1105.71 742.37)"/><path class="cls-19" d="M1587.84-572c-1.52,2.5-.44,5.23-.67,7.85-.17,1.94.11,3.93-.69,5.81a7.11,7.11,0,0,1-7.45,4.4,6,6,0,0,1-5.58-5.35c-1.11-6.47-.64-13-.26-19.47,0-.82.17-1.63.26-2.45,1-.05,1.59-.84,2.26-1.46a5.83,5.83,0,0,1,6.83-1.14,6.45,6.45,0,0,1,4,6C1586.62-575.75,1586.08-573.6,1587.84-572Z" transform="translate(-1105.71 742.37)"/><path class="cls-24" d="M1593.93-400.41l.08,33.74c-2-.68-1.55-2.45-1.56-3.86-.09-7.75,0-15.5,0-23.25,0-4.8-.07-4.86-4.82-4.86q-13.32,0-26.65,0c-3.63,0-3.83.23-3.86,3.89,0,3.41,0,6.82,0,10.23,0,1.31.13,2.72-1,3.74l-2.3-.67c-.65.25-1-.08-1.37-.57l-6.09-2.67a1.36,1.36,0,0,1-1.25-.56l-6.23-2.79a.9.9,0,0,1-1.2-.45l-3.39-1.89c-.21-11.94-.71-23.88-.3-35.82.87,3.77.26,7.6.36,11.39.12,4.14.09,8.29,0,12.43,0,1.74.53,2.36,2.3,2.33,6.52-.13,13-.13,19.56-.18C1568.7-400,1581.32-400,1593.93-400.41Z" transform="translate(-1105.71 742.37)"/><path class="cls-22" d="M1538.64-581.29c0,5.85,0,11.71,0,17.57a19.47,19.47,0,0,1-.6,4.88c-.9,3.53-3.37,5.27-7.1,5a6.7,6.7,0,0,1-6-6.39c-.08-3.1,0-6.2,0-9.29,0-1,.36-2.09-.55-2.92.81-1.32.6-2.79.59-4.22,0-3.15,1.15-5.57,4.11-7s5.21-.48,7.41,1.34A3,3,0,0,0,1538.64-581.29Z" transform="translate(-1105.71 742.37)"/><path class="cls-25" d="M1695.43-463.13c-3.47,4.4-3.47,4.4-7.21.66q-10.87-10.87-21.75-21.73c-1.16-1.15-1.87-1.95-.32-3.49q18.3-18.13,36.49-36.39a5.61,5.61,0,0,1,1-.69c2.15,2.07.52,3.49-.89,4.9-9.93,9.95-19.82,19.93-29.85,29.78-1.76,1.72-1.74,2.63,0,4.34C1680.5-478.3,1687.94-470.69,1695.43-463.13Z" transform="translate(-1105.71 742.37)"/><path class="cls-26" d="M1556.08-541.4c-5.11-1-7.42-3.69-7.44-9,0-10.06,0-20.11,0-30.16,0-1.09.4-2.31-.64-3.21,1.3-.74,1.37-2.19,1.93-3.34a6.12,6.12,0,0,1,7.46-3.53c-.67,14.7-.12,29.41-.32,44.11,0,1.73.29,3.56-1,5Z" transform="translate(-1105.71 742.37)"/><path class="cls-27" d="M1436-484.87c4.33-2.05,7.47-5.62,11.08-8.6q0,8.36.08,16.7a2.58,2.58,0,0,1-1.14,1c-8.63,2.78-17.19,5.78-26,7.86-2.1,0-2.81-1.28-2.9-3.15,0-1.12,0-2.24,0-3.35,0-2.24.83-3.73,3.15-4.14a14.26,14.26,0,0,0,4.14-1.2,21.36,21.36,0,0,1,3.29-1.33,13.07,13.07,0,0,0,3.79-1.8C1433-483.56,1434-485.3,1436-484.87Z" transform="translate(-1105.71 742.37)"/><path class="cls-19" d="M1556.06-541.46c0-15.28,0-30.57,0-45.85,0-1.17-.77-2.83,1.27-3.31a5.86,5.86,0,0,1,4.88,4.9,3.54,3.54,0,0,0,1.31,2c-1,.9-.63,2.11-.64,3.2q0,15.15,0,30.3C1562.9-545.35,1560.86-542.75,1556.06-541.46Z" transform="translate(-1105.71 742.37)"/><path class="cls-28" d="M1420.47-468.66l26.72-8.11c.21.25.41.51.62.77l-1.12,1.14c-4,5.87-9.25,10.7-13.73,16.17a43.6,43.6,0,0,1-5.1,5.76c-.93.79-1.77,1.82-3.23,1.25-2.76-2.8-3.29-6.71-5-10.05-.6-1.19-1.07-2.43-1.57-3.66-.31-.88-.77-1.74-.24-2.7C1418.63-468.69,1419.7-468,1420.47-468.66Z" transform="translate(-1105.71 742.37)"/><path class="cls-29" d="M1228.25-298.86q-59.24,0-118.47-.07c-2.77,0-3.5.75-3.46,3.48.15,8.4,0,8.4,8.43,8.4h113.49c-.74,1.12-1.89.63-2.84.63q-58.28,0-116.54.07c-2.49,0-3.12-.72-3.11-3.15.08-29.73.06-59.46.09-89.19,0-1-.4-2.09.53-2.93l0,78c0,4.1,0,4.11,3.95,4.11,37.82,0,75.64,0,113.46.07,3.2,0,4.08-.83,3.94-4-.26-5.69-.1-11.39-.06-17.09,0-1-.53-2.45,1.32-2.59-.87,1.08-.59,2.35-.6,3.57C1228.34-312.62,1228.3-305.74,1228.25-298.86Z" transform="translate(-1105.71 742.37)"/><path class="cls-30" d="M1150.54-509.6q0,13,0,26.06c-1.43.22-1.67-1-2.17-1.84a152.65,152.65,0,0,1-7.78-15.17c-.71-1.5-.24-2.22,1-3C1144.57-505.52,1147.55-507.58,1150.54-509.6Z" transform="translate(-1105.71 742.37)"/><path class="cls-31" d="M1480.91-574.45l-63.53.05-.22-.35.23-.35c18.41,0,36.82,0,55.23.11,2,0,2.7-.59,2.67-2.64-.08-7.45,0-14.89,0-22.34,1.08,2.68.5,5.49.57,8.24.11,4.43.19,8.87,0,13.3-.13,2.64.53,3.92,3.36,3.44A1.89,1.89,0,0,1,1480.91-574.45Z" transform="translate(-1105.71 742.37)"/><path class="cls-32" d="M1417.37-659q0,31.71,0,63.43v0c-.2.28-.41.28-.63,0l0-.05q0-31.71,0-63.41A1.62,1.62,0,0,1,1417.37-659Z" transform="translate(-1105.71 742.37)"/><path class="cls-33" d="M1386.94-305.72c.56.48,1.22,1.65,1.21-.33,0-4.51,0-9,.07-13.55,0-1-.32-2.07.52-2.93,0,4.43,0,8.87,0,13.3a27.79,27.79,0,0,0,1,9.16c.22.65.18,1.33-.62,1.42-.56.07-.78-.54-.89-1.06Q1387.56-302.71,1386.94-305.72Z" transform="translate(-1105.71 742.37)"/><path class="cls-34" d="M1673-328.91c-1.93,1.17-2,3.46-3.06,5.12-.56.85-.49,2.89-1.8,2.31-1.52-.69.11-2.06.39-3.09.51-1.86,2-3.38,2-5.41A4.23,4.23,0,0,1,1673-328.91Z" transform="translate(-1105.71 742.37)"/><path class="cls-35" d="M1506.28-633.5c0,5,0,9.9,0,14.85,0,1.09-.42,2.3.62,3.2a7,7,0,0,1-.74,2.48c-.76.94-1,.1-1.12-.62,1.05-1,.57-2.34.58-3.52.06-5.47,0-10.93,0-16.39C1505.9-633.77,1506.09-633.78,1506.28-633.5Z" transform="translate(-1105.71 742.37)"/><path class="cls-36" d="M1658.08-335.58c-2,1.67-2.22,4.28-3.44,6.36-.33.56-.42,1.66-1.34,1.32-1.26-.45-.27-1.38-.11-2.05.58-2.33,2.7-4.15,2.28-6.82C1656.33-336.34,1657.4-336.39,1658.08-335.58Z" transform="translate(-1105.71 742.37)"/><path class="cls-37" d="M1507.65-741.8c-1.41,1.81-.56,3.91-.67,5.87-.17,2.74-.06,5.49-.07,8.24-.08.18-.19.34-.3.31-.31-.07-.31-.34-.3-.6,0-3.2-.16-6.41.06-9.59.17-2.54-.23-4.36-3.13-4.69A8.72,8.72,0,0,1,1507.65-741.8Z" transform="translate(-1105.71 742.37)"/><path class="cls-38" d="M1651.22-338.64c-1.39-.06-1.4,1.22-2,2-.76,1-.71,3.45-2.11,2.75-1.6-.79.45-2.33.69-3.59a23.72,23.72,0,0,1,.69-2.32C1649.43-339.48,1650.54-339.55,1651.22-338.64Z" transform="translate(-1105.71 742.37)"/><path class="cls-39" d="M1680.47-325.66c-1.64.89-1.69,2.75-2.54,4.12-.33.52-.65,1.19-1.4.75-.55-.33-.2-.89-.08-1.39.39-1.57,1.84-2.82,1.44-4.64A3.31,3.31,0,0,1,1680.47-325.66Z" transform="translate(-1105.71 742.37)"/><path class="cls-40" d="M1665-332.28c-.68,1.48-1.35,3-2,4.45-.21.47-.55.95-1.15.64a.93.93,0,0,1-.35-1.32l2-4.47A1.3,1.3,0,0,1,1665-332.28Z" transform="translate(-1105.71 742.37)"/><path class="cls-41" d="M1350.1-295.06l.77-.75a10.36,10.36,0,0,1,1.06,6.37A8.68,8.68,0,0,1,1350.1-295.06Z" transform="translate(-1105.71 742.37)"/><path class="cls-42" d="M1306.66-323.76c0,.21-.06.41-.1.62h-3.32A5.22,5.22,0,0,1,1306.66-323.76Z" transform="translate(-1105.71 742.37)"/><path class="cls-43" d="M1163.06-382.33q0-69.57,0-139.14c0-17,10.25-27.28,27.25-27.3l18.63,0c1.72.72,1.62,2.31,1.59,3.71,0,2.36.89,3.33,3.29,3.32q29.69,0,59.35,0c2.39,0,3.37-.93,3.31-3.31,0-1.39-.12-3,1.57-3.73,6.53,0,13.06,0,19.58.05,15.62.12,26.16,10.58,26.23,26.18.07,18.65,0,37.3,0,56q0,52.23,0,104.45c0,9.05-3,16.64-10.49,22.06a25.16,25.16,0,0,1-15.18,4.63c-23.1-.05-46.21,0-69.32,0l-.15-.14h-.2c-1.18-.86-.54-2.1-.55-3.14,0-13.14,0-26.28,0-39.42a14.31,14.31,0,0,0-.13-3.4,10.73,10.73,0,0,1-.45-4.29c0-5.28,0-10.56,0-15.84,0-2.14-.67-3.25-3-3.25-13.15,0-26.3,0-39.45,0a5.8,5.8,0,0,0-4.9,2.73c-4.1,5.47-8.15,11-12.39,16.33a20.16,20.16,0,0,1-2.62,3.06,1.91,1.91,0,0,1-2,.47Z" transform="translate(-1105.71 742.37)"/><path class="cls-17" d="M1177.25-340.54c9.84,0,19.69.05,29.53,0,2.09,0,2.94.51,2.89,2.77-.13,6.32-.1,12.64,0,19,0,2.16-.54,3.22-3,3.21q-29.39-.09-58.75,0c-2,0-3.06-.57-3-2.82.09-6.52.11-13,0-19.58-.05-2.21.95-2.53,2.81-2.52C1157.56-340.51,1167.41-340.54,1177.25-340.54Z" transform="translate(-1105.71 742.37)"/><path class="cls-44" d="M1228.22-382.23q.08,21.14.16,42.27c0,1.44.12,2.89.19,4.33-1.53-.78-.87-2.2-.87-3.32,0-13-.12-25.92,0-38.87,0-2.94-.69-3.86-3.74-3.84-19.18.14-38.36.08-57.53,0-1.15,0-2.53.62-3.42-.74l1.24-.38a11.34,11.34,0,0,1,4-.48q27.62,0,55.23,0C1225.11-383.2,1226.83-383.47,1228.22-382.23Z" transform="translate(-1105.71 742.37)"/><path class="cls-45" d="M1534.16-332.54q-25.32-.68-50.64-1.34c-2.08-.05-2.45-.71-1.59-2.64q8.92-20,17.7-40.06c.61-1.38,1.09-2.23,2.94-1.39,10.54,4.81,21.15,9.49,31.73,14.21,1,1.31,1,2.87,1,4.41,0,7.5,0,15,0,22.49C1535.29-335.34,1535.47-333.73,1534.16-332.54Z" transform="translate(-1105.71 742.37)"/><path class="cls-46" d="M1534.16-332.54q.08-15.61.14-31.22c11.46,5,22.92,10,34.36,15q19,8.39,38,16.87c.88.39,2,.43,2.72,2Z" transform="translate(-1105.71 742.37)"/><path class="cls-47" d="M1622-336.83c2.8,1,5.72,1.8,8.09,3.76C1627.19-333.88,1624.21-334.53,1622-336.83Z" transform="translate(-1105.71 742.37)"/><path class="cls-48" d="M1597.71-347.38a10.71,10.71,0,0,1,6.25,2.51C1601.52-344.8,1599.57-346,1597.71-347.38Z" transform="translate(-1105.71 742.37)"/><path class="cls-49" d="M1555.44-366a10.75,10.75,0,0,1,6.23,2.51C1559.23-363.47,1557.28-364.62,1555.44-366Z" transform="translate(-1105.71 742.37)"/><path class="cls-50" d="M1634.45-331.24a10.6,10.6,0,0,1,5.62,2.51C1638-329.16,1635.77-329.15,1634.45-331.24Z" transform="translate(-1105.71 742.37)"/><path class="cls-51" d="M1582.17-354.23a9,9,0,0,1,5.64,2.5C1585.79-352.25,1583.76-352.75,1582.17-354.23Z" transform="translate(-1105.71 742.37)"/><path class="cls-52" d="M1615.76-339.3a6.46,6.46,0,0,1,5,1.86A8,8,0,0,1,1615.76-339.3Z" transform="translate(-1105.71 742.37)"/><path class="cls-53" d="M1590.87-350.49a6.11,6.11,0,0,1,4.39,1.89A6.71,6.71,0,0,1,1590.87-350.49Z" transform="translate(-1105.71 742.37)"/><path class="cls-53" d="M1607.68-343a6.14,6.14,0,0,1,4.37,1.89A6.59,6.59,0,0,1,1607.68-343Z" transform="translate(-1105.71 742.37)"/><path class="cls-54" d="M1548.58-369.15a6.1,6.1,0,0,1,4.38,1.89A6.66,6.66,0,0,1,1548.58-369.15Z" transform="translate(-1105.71 742.37)"/><path class="cls-51" d="M1565.38-361.69a6.21,6.21,0,0,1,4.38,1.88A6.54,6.54,0,0,1,1565.38-361.69Z" transform="translate(-1105.71 742.37)"/><path class="cls-55" d="M1539.87-372.88a3.65,3.65,0,0,1,3.16,1.24C1541.64-371.19,1540.81-372.17,1539.87-372.88Z" transform="translate(-1105.71 742.37)"/><path class="cls-25" d="M1209.44-561.39c-5.36.06-10.74.35-16.1.12-13.31-.58-24.83,3.21-34,13.21-1.43-3.62-.85-7.41-.58-11.06A124.52,124.52,0,0,1,1165.5-592a96.39,96.39,0,0,1,7.52-16,107.4,107.4,0,0,1,17.45-22.8,109.65,109.65,0,0,1,40.08-25.14,101.88,101.88,0,0,1,43.49-6,107.77,107.77,0,0,1,38,10.17,112.18,112.18,0,0,1,33.72,24.82A98.48,98.48,0,0,1,1359-608.7a8.52,8.52,0,0,1,.59,2.05c-1.94,10.48-1.07,21.07-1.33,31.61a2.13,2.13,0,0,1-2.43.39,2.66,2.66,0,0,1-.82-.67c-2.45-7.35-4.62-14.81-8.38-21.67-10.81-19.71-26.43-34-47.4-42.31a84.86,84.86,0,0,0-13.66-4.11c-3-.63-3.54-.2-3.54,2.87q-.06,30.59,0,61.18c0,4.1,4.71,8.41,9.09,8.42,17.19,0,34.37,0,51.56,0,1.64,0,3.32-.21,4.91.45a3.35,3.35,0,0,1,1.41,2c1.68,4.39,3.32,5.5,8.09,5.7,2,.08,4.15-.42,6.11.58a2.07,2.07,0,0,1-.06,3.07c-3.93,3.54-3.61,8.13-3.29,12.7.57,8.21,3.28,15.54,9.33,21.39a5.39,5.39,0,0,1-.07,3.93,107.83,107.83,0,0,1-30.05,46.3c-.73.66-1.37,1.64-2.63,1.22v-22.29a11.65,11.65,0,0,1,2.09-3.73,88.72,88.72,0,0,0,16.21-34.47c1-4.51.88-4.62-3.88-4.62H1337a7.35,7.35,0,0,1-3.92-.65c-5.78-11.2-14.56-18.55-27.09-21.05-5-1-10.07-.77-15.12-.79-4.44,0-8.87-.08-13.31-.13-1.78-2.3-.86-5-.93-7.48-.16-6.22.53-5.92-5.87-5.93-2.38,0-4.76.07-7.14-.06-1.43-.07-2.77-.45-3-2.09a20,20,0,0,0-8.73-13.73,3.15,3.15,0,0,1-1-1.52,15.25,15.25,0,0,1-.33-4.62q0-21.44,0-42.87c0-4.24-.41-4.63-4.49-3.55q-54.2,14.37-68.33,68.65c-.85,3.28-.55,3.62,2.8,3.63,8.18,0,16.36,0,24.54,0,1.53,0,3.13-.22,4.5.8C1211-567.19,1211.32-564.29,1209.44-561.39Z" transform="translate(-1105.71 742.37)"/><path class="cls-25" d="M1641.34-418.32c-6-4.47-12.87-7.14-19.95-9.36,0-1.32,1.08-1.95,1.86-2.74q13.5-13.53,27-27.05a10.71,10.71,0,0,1,15.07-.47c4.1,3.66,4.83,10.69.86,14.84C1658.13-434.64,1649.65-426.56,1641.34-418.32Z" transform="translate(-1105.71 742.37)"/><path class="cls-56" d="M1417.93-324.49c-2.09-.21-.55-2.42-1.72-3.14-1.23-1.52-1.39-3.42-1.75-5.23q-8.39-42.49-16.64-85c-3.5-18-7.17-35.92-10.54-53.93a9.62,9.62,0,0,1-.36-4c1.11-2,2.42-1.18,3.74-.28-.49.66-.9,1.12-.08,2,5,5.59,9.86,11.29,14.83,16.9a19.5,19.5,0,0,1,3.24,4.09c.66,1.38,1.33.29,1.95.47,1.52,3.35,4.17,5.87,6.47,8.65a3.91,3.91,0,0,1,.31.89,6.78,6.78,0,0,1,.06,2,4.31,4.31,0,0,1-.19,1c-2,4.67-4.39,9.16-6.72,13.66a10.15,10.15,0,0,0-1,6.59c2.3,14.31,4.34,28.67,6.5,43,.53,3.48,1.11,6.94,1.56,10.43,0,.35,0,.7,0,1.05a7.86,7.86,0,0,0,.66,3.64,10.47,10.47,0,0,1,.64,3.35c0,9.93.52,19.86-.85,29.75Z" transform="translate(-1105.71 742.37)"/><path class="cls-57" d="M1416.82-441.2c0-.65,0-1.29-.07-1.94a2.1,2.1,0,0,0,1.68-1.2c1.94-2.68,4.37-5,6.42-7.54,2.63-.83,3.92-3.14,5.61-5,5.4-6,10.26-12.47,16.23-18-1.74,9.23-3.42,18.47-5.23,27.69q-11.26,57.62-22.58,115.22c-.2,1-.24,2.05-.35,3.07a2.87,2.87,0,0,1-.48.28q0-13-.06-25.92a26.36,26.36,0,0,0-.64-7.62c0-.78,0-1.57,0-2.35-.12-1.47.38-2.89.42-4.35,2.73-17.15,5.26-34.34,7.84-51.51a9.23,9.23,0,0,0-1-5.7c-2.12-4.26-4.34-8.47-6.33-12.79C1417.91-439.68,1417.78-440.71,1416.82-441.2Z" transform="translate(-1105.71 742.37)"/><path class="cls-58" d="M1494.4-407.7c-1,2.36-2,4.73-3.05,7.09-.2.46-.49,1-1.11.81-.82-.27-.68-.91-.4-1.51,1.1-2.32,2.22-4.63,3.33-6.95Z" transform="translate(-1105.71 742.37)"/><path class="cls-59" d="M1509-401.33c-.26,2.55-1.81,4.59-2.69,6.89-.24.61-.39,1.61-1.42,1.06-.71-.38-.35-1.08-.08-1.63,1.07-2.22,1.76-4.64,3.25-6.65Z" transform="translate(-1105.71 742.37)"/><path class="cls-60" d="M1524-394.63c-.5,2.47-2,4.55-2.83,6.86-.21.55-.52,1.31-1.29,1s-.49-1-.23-1.61c1-2.26,2-4.52,3-6.79Z" transform="translate(-1105.71 742.37)"/><path class="cls-61" d="M1470.19-444.43c.62-1.73,3.79-1.26,3.44-3.31-.26-1.53-1.83-2.84-2.82-4.24l-1.2-1.75c2.87,1.27,3.94,4.12,5.46,6.52.44.69-.63,1.39-1.42,1.68C1472.52-445.12,1471.35-444.79,1470.19-444.43Z" transform="translate(-1105.71 742.37)"/><path class="cls-62" d="M1455.31-397.14c2-3.27,2.87-7.14,5.59-10-1.16,3.85-3.31,7.22-5.22,10.71-.08,0-.21-.07-.24-.14S1455.35-396.95,1455.31-397.14Z" transform="translate(-1105.71 742.37)"/><path class="cls-63" d="M1516.73-397.76c-.64,1.52-1.26,3-1.93,4.54-.2.45-.51,1-1.15.64a.94.94,0,0,1-.41-1.31c.64-1.52,1.3-3,2-4.53Z" transform="translate(-1105.71 742.37)"/><path class="cls-64" d="M1501.87-404.44c-.68,1.59-1.32,3.2-2,4.78-.22.48-.74.82-1.23.41a1.11,1.11,0,0,1-.22-1.06c.88-1.54.82-3.67,2.77-4.55Z" transform="translate(-1105.71 742.37)"/><path class="cls-65" d="M1460.3-432c-.57-.86-1.11-1.74-1.72-2.56-2.57-3.46-2.58-3.45,1.69-4.92.5,1-.6.92-1,1.1-1.56.77-1.58,1.51-.49,2.84C1459.59-434.56,1461.2-433.72,1460.3-432Z" transform="translate(-1105.71 742.37)"/><path class="cls-66" d="M1531.37-391.42c-.15,1.7-1.13,3.09-1.74,4.62-.2.5-.6,1-1.18.67a.93.93,0,0,1-.28-1.36c.79-1.43.89-3.23,2.35-4.29Z" transform="translate(-1105.71 742.37)"/><path class="cls-62" d="M1431.64-351.12c.65-2.47,2.14-4.54,3.15-6.84C1435.11-355,1433.44-353,1431.64-351.12Z" transform="translate(-1105.71 742.37)"/><path class="cls-65" d="M1439.73-366.67c.93-2.47,1.73-5,3.75-6.88C1442.64-371,1441.85-368.49,1439.73-366.67Z" transform="translate(-1105.71 742.37)"/><path class="cls-65" d="M1447.19-381c.64-2.46,2.14-4.53,3.15-6.83C1450.66-384.9,1449-382.91,1447.19-381Z" transform="translate(-1105.71 742.37)"/><path class="cls-43" d="M1680.47-683.39c2.24,1,3.12-1.14,4.26-2.09,2.42-2,3.48-.13,4.82,1.19s3.31,2.57,1,4.77c-.74.72-1.22,1.68-1.91,2.45s-.49,1.61.14,2.44,1.21,1.39,2.31.84c.56-.27,1.21-.34,1.75-.63,2.69-1.49,4.12-.55,5.53,2.08,1.54,2.9.83,4.4-1.82,5.79-1.1.59-2.73,1-2,3.2s2.31,1.58,3.76,1.63c1.28.05,2.94-.92,3.72.54a10.51,10.51,0,0,1,.94,6.34c-.17,1.24-1.93.86-2.9,1.39-1.29.72-3.43.13-3.52,2.68s2.05,2.07,3.38,2.7c1.07.51,3,.18,3.1,1.57a10.67,10.67,0,0,1-1,6.34c-.68,1.15-2.31.36-3.5.5-1.42.16-3.11-.72-3.9,1.47s1.14,2.51,2.15,3.49,3,1.1,2.7,2.63a13.18,13.18,0,0,1-2.94,5.74c-.46.55-1.15.14-1.73-.08-1-.36-2-.64-2.91-1.07-1.3-.58-2.24-.54-3.18.78s-.25,2,.44,3c3.19,4.33,3.13,4.47-1.07,8-.94.78-1.64,1.13-2.64.19-.68-.63-1.48-1.12-2.22-1.7-1.06-.83-1.93-1.69-3.48-.53s-.84,2.08-.44,3.22c1.46,4.21,0,6.59-4.37,7.44-1,.19-1.3-.34-1.71-.91-.66-.93-1.34-1.84-1.93-2.82s-1.23-1.78-2.71-1.28-1.74,1.37-1.74,2.79c0,5.4,0,5.3-4.87,5.8-1.81.19-2.74-.3-3-2.06a7.7,7.7,0,0,0-.43-1.49c-.51-1.25-.39-2.91-2.55-2.91s-2.23,1.57-2.52,2.9c-.53,2.46-1.26,4.05-4.44,3.53s-4.67-1.39-4.1-4.81c.17-1.06,1-2.8-1.08-3.36-1.22-.73-1.81.16-2.43,1a6.12,6.12,0,0,1-2.06,2.11c-2.32,3.32-4.22.22-6.26-.43-2.46-.79-1.56-2.45-1-4,.33-.87.64-1.75,1-2.62s-.19-1.55-.93-2-1.34-1.06-2.23-.4l-1.25.92c-3.47,2.63-5.83,2.06-8.14-1.84-.57-1-.19-1.53.33-2.2.77-1,1.49-2,2.3-2.93a1.82,1.82,0,0,0,0-2.51,2,2,0,0,0-2.62-1,6.49,6.49,0,0,1-.87.33c-4.3,1.41-6.05.35-7.22-4.14a1.6,1.6,0,0,1,.9-2c1-.69,2.05-1.42,3.09-2.09.86-.56,1.39-1.14.92-2.29s-.71-2-2.09-1.82a13.5,13.5,0,0,1-1.56,0c-4.38.06-4.24,0-4.84-4.31-.35-2.51.52-3.54,2.87-4.09,1.39-.32,3.54,0,3.52-2.59s-2-2.15-3.44-2.79c-1.06-.49-2.94-.09-3-1.63-.11-2.13-.08-4.48,1.15-6.32.75-1.12,2.33-.28,3.54-.31,1.45,0,3,.64,3.8-1.58s-1-2.35-1.92-3.26-3.17-1.22-2.95-2.8a10.33,10.33,0,0,1,2.78-5.47c1.16-1.21,2.49.22,3.75.42s2.66,1.73,4.12-.18-.32-2.74-1-4-2.43-1.92-1.69-3.37a10,10,0,0,1,4.3-4.37c1.36-.71,2.08,1,3.15,1.48,1.32.59,2,2.84,4.19,1.26s.63-2.93.15-4.34c-1-3,2-6.89,5.24-6.44,1.53.2,1.69,1.94,2.58,2.89s1.13,2.68,3.26,2.11c2.32-.63,1.69-2.28,1.69-3.71,0-3.63,3-5.88,6.6-5,.78.18.93.72,1.11,1.31.38,1.18.79,2.36,1.07,3.56s.78,1.78,2.09,1.81a2,2,0,0,0,2.35-1.87c.07-.41.33-.78.37-1.19.3-3.16,1.8-4,5-3.3,2.59.54,3.91,1.24,3.48,4.13-.18,1.21-.78,2.82.57,3.77,2.09,1.47,3.45.29,4.3-1.62,1.4-3.13,3.21-3.18,6.05-1.59,2.43,1.36,3,2.67,1.84,5.13C1679-686.38,1677.49-684.41,1680.47-683.39Z" transform="translate(-1105.71 742.37)"/><path class="cls-67" d="M1639.31-608.68c1.22-1.43,1.08-4.86,4.49-3.07-2.26.61-2.29,3.12-3.76,4.41A1.34,1.34,0,0,0,1639.31-608.68Z" transform="translate(-1105.71 742.37)"/><path class="cls-68" d="M1637-601.15c-.92,2.47-1.7,5-3.75,6.87C1634.07-596.78,1634.84-599.33,1637-601.15Z" transform="translate(-1105.71 742.37)"/><path class="cls-68" d="M1689.19-701.29c-.91,2.47-1.69,5-3.74,6.87C1686.32-696.92,1687.09-699.47,1689.19-701.29Z" transform="translate(-1105.71 742.37)"/><path class="cls-69" d="M1251-592.18c5.55,3.55,9.62,8.11,10.18,15,.13,1.53,1.17,1.44,2.22,1.44,3.92,0,7.85.07,11.77,0,1.74,0,2.38.54,2.33,2.3-.09,4,0,8.06,0,12.08,0,1-.09,2.07-.13,3.11-1.18,1.11-2.67,1-4.1,1q-29.76,0-59.51,0c-1.44,0-2.93.09-4.11-1l-.21-3.14c-.15-2.81.45-5.65-.39-8.43a12.63,12.63,0,0,1-.3-2.46c0-3.44.67-4.13,4.2-4.22,2.9-.06,5.8-.09,8.7,0,2.12.08,3.12-.7,3.62-2.85,1.89-8.21,7.14-13.07,15.37-14.74A13.61,13.61,0,0,1,1251-592.18Z" transform="translate(-1105.71 742.37)"/><path class="cls-3" d="M1336.46-473.62a110.77,110.77,0,0,0,22.68-27.14c3.86-6.52,6.54-13.51,9.27-20.5a8.92,8.92,0,0,0,.43-3.34c2.62.18,5.12,1.1,5.7,3.76A67,67,0,0,0,1387.38-494a7.23,7.23,0,0,1-.24,4.81c-4,8.31-4.94,6.8-11,4.43-3.07-1.21-6.3-2-9.34-3.31-1.66-.72-3-.48-4,1.07-.17.26-.37.5-.56.75-3.22,4.17-3.22,4.17-.06,8.4,2.16,2.9,4.36,5.76,6.58,8.61,2.48,3.19,2.41,3.65-.4,6.84-.54.75-1.66.95-1.92,2-5.54,2.18-11.07,4.41-16.79,6.09-2.68-1-4.61-3.11-6.77-4.83-1.94-1.55-3.85-2.59-6.38-2Z" transform="translate(-1105.71 742.37)"/><path class="cls-70" d="M1209.66-558.25h67.72c.46,3.13-.69,6.37.69,9.43-1,1.29-.68,2.82-.52,4.2.34,2.91-.57,3.84-3.66,3.81-17.66-.16-35.33-.08-53-.08-3,0-6-.1-9,0-1.93.08-2.5-.63-2.47-2.5s.52-3.72-.49-5.46C1210.39-551.86,1209.2-555.12,1209.66-558.25Z" transform="translate(-1105.71 742.37)"/><path class="cls-3" d="M1339.71-380.47l-2.33-2.89-.87.36v5.07c0,6.11,0,12.23,0,18.34,0,1.1.35,2.28-.43,3.29,0-8.46,0-16.93,0-25.39a7.6,7.6,0,0,0-1-4.1,14.18,14.18,0,0,1,.13-15.54,7.45,7.45,0,0,0,.92-3.82c.14-3.39-.46-6.8.34-10.17,1.34.81,1.25,2.07,1,3.35a20.65,20.65,0,0,0-.11,5.38c.23,1.85.63-.31,1-.08,3.8-1.75,7.66-3.16,12-2.29.56.41.9,1,1.63,1.31,9.74,4.18,12.58,10.95,8.93,21.08a9.25,9.25,0,0,0-.24,1.21c-2.33,2.05-4.24,4.65-7.37,5.68a3.26,3.26,0,0,1-4.35,1.19C1345.66-378.28,1342.7-379.44,1339.71-380.47Z" transform="translate(-1105.71 742.37)"/><path class="cls-71" d="M1336.63-412.17c.65-1.1.23-2.12-.23-3.15-.49-2.63-1.24-5.27,0-7.9,5.23-4.55,9.86-3,11.42,3.74q1.22,5.26,2.45,10.52l-11.88,2.47C1336.6-408,1337.47-410.35,1336.63-412.17Z" transform="translate(-1105.71 742.37)"/><path class="cls-72" d="M1387.44-476.14c3,15.73,6,31.46,9.09,47.18q9.73,49.75,19.52,99.48c.11.61.11,1.24.16,1.85-.2.47-.12,1.5-.82.14-3.36-6.51-6.85-12.94-10.22-19.44q-14-27-27.94-54-4.86-9.35-9.93-18.6a3.34,3.34,0,0,1,.44-4.38c3.14-3.81,5.86-8,9-11.77,1.56-1.88.86-2.54-.83-3.37-4.53-2.22-9-4.55-13.55-6.75-1.82-.88-2.52-1.44-.94-3.56,3.14-4.18,6.85-8,9.2-12.71.47-1.65,2-2,3.28-2.48a17.5,17.5,0,0,0,9.63-8.51,8.35,8.35,0,0,1,2.62-3.34A1.14,1.14,0,0,1,1387.44-476.14Z" transform="translate(-1105.71 742.37)"/><path class="cls-73" d="M1378.3-347.84l-.69-1.31c2.59-.6,5.18-1.21,7.78-1.79.56-.12,1.3-.36,1.41.57.07.62-.51.85-1,1C1383.31-348.87,1380.8-348.36,1378.3-347.84Z" transform="translate(-1105.71 742.37)"/><path class="cls-74" d="M1367.51-462.56c.3.61.89.67,1.45.79l-2.56,1.32C1365.64-461.75,1366.9-462,1367.51-462.56Z" transform="translate(-1105.71 742.37)"/><path class="cls-75" d="M1506.31-728l.6.29c18,5.25,22.76,26.56,10.74,38.92a3.8,3.8,0,0,1-.89.86c-4.62,2.12-4.63,6.09-4.48,10.36.12,3.62,1,7.56-2.4,10.44-1.36,1.89-3.42,1.49-5.31,1.56-1.32,0-2.65,0-4,0-2.3-.12-4.72.65-6.82-.92.33-1.52,1.65-1.5,2.7-1.49,2.65,0,3.34-1.4,3.27-3.74-.08-2.58,0-5.17,0-7.75q0-21.09,0-42.18a50.39,50.39,0,0,0-.42-6.49C1501.68-729,1504-727.75,1506.31-728Z" transform="translate(-1105.71 742.37)"/><path class="cls-1" d="M1499.33-728.13c1.4.23,1.39,1.27,1.39,2.34q0,28.18,0,56.35c0,2-.85,2.45-2.61,2.39-1.42,0-2.89-.34-4.27.32-.78.91-1.23.06-1.77-.33a7.46,7.46,0,0,1-2.52-6.69c.08-.82-.06-1.66,0-2.48.52-5-.58-8.74-4.9-12.47-7.51-6.5-8.86-15.46-5.49-24.77A22.31,22.31,0,0,1,1499.33-728.13Z" transform="translate(-1105.71 742.37)"/><path class="cls-76" d="M1492.1-667.06l1.77.33,6.81.32c1,1,.85,2.2.87,3.4,0,.34,0,.68,0,1,0,1.17.09,2.39-.64,3.44a.85.85,0,0,1-.88.22,3.77,3.77,0,0,0-4.33-2.37,5,5,0,0,1-3-.19C1493.27-663,1492-665,1492.1-667.06Z" transform="translate(-1105.71 742.37)"/><path class="cls-77" d="M1495.71-652.72c-3-.4-4.16-2.09-3.69-5,2.88-1.46,5.77-1.13,8.67-.1a4.42,4.42,0,0,1,.21,5.15C1499.16-651.42,1497.44-652,1495.71-652.72Z" transform="translate(-1105.71 742.37)"/><path class="cls-78" d="M1492.74-660.88c1.89-1.07,4-.6,5.94-.54s1.17,1.9,1.41,3a20.57,20.57,0,0,1-8,0Z" transform="translate(-1105.71 742.37)"/><path class="cls-79" d="M1495.71-652.72l5-.16c1.92-1.06,3.82-1.29,5.68.16l-.06.57a1.3,1.3,0,0,1-.59.57C1502.14-650,1498.69-649.32,1495.71-652.72Z" transform="translate(-1105.71 742.37)"/><path class="cls-80" d="M1505.69-651.58l.59-.57v18.65h-.57Q1505.7-642.53,1505.69-651.58Z" transform="translate(-1105.71 742.37)"/><path class="cls-81" d="M1492.08-658.4h8.63l.19.2v.28l-.2.18H1492Z" transform="translate(-1105.71 742.37)"/><path class="cls-15" d="M1386.85-494.16a47.54,47.54,0,0,1-11.68-21.93c-.92-4-2.26-7.12-6.33-8.51-8.82-7.81-10.35-18.06-9.63-29,.15-2.27.85-4.55,3.11-5.73,1.26-.66,1-1.62,1-2.63,1.08-1.06,2.48-1,3.81-1,16,0,31.9,0,47.85,0a4.54,4.54,0,0,1,2.41.42l.64.59v54.74a58.36,58.36,0,0,0-.12,14.16,115.26,115.26,0,0,1,.27,13.9c0,2.7-1,3.37-3.58,2.73a59.12,59.12,0,0,1-25.75-14.26C1387.77-491.67,1387.49-493,1386.85-494.16Z" transform="translate(-1105.71 742.37)"/><path class="cls-13" d="M1386.85-494.16c7.38,8.34,16.66,13.56,27.21,16.81,3,.91,3.42-.09,3.37-2.82-.16-7.94-.07-15.9,0-23.85,0-1.09-.41-2.3.6-3.22,0,3.93,0,7.85,0,11.77,0,1.47-.35,3.81,2.19,1.38.69-.66,1.1-.16,1.45.37.49.73,1.18,1.1,1.73.32.83-1.15,1.41-1.4,2.22,0,.3.49,1,.68,1.31.22,1-1.45,1.69-1.41,2.7,0,.43.59,1.12.13,1.49-.46.65-1,1.21-.86,1.83.06s1.33.81,1.92-.09c.7-1.08,1.28-.78,1.82.13.31.52,1,.83,1.27.47,1-1.38,1.72-1.45,3-.08.88.95,1.26-1,2.31-1.15a1.94,1.94,0,0,1-1,2.7c-2,1.2-3,3.62-5.33,4.6-.88.38-.85,1.34-.84,2.18l-4.33,2.53c-1.39.33-2.87.48-3.75,1.84l-3.11,1.26c-1.18.6-2.76,0-3.74,1.24-.85.87-2.83.09-3,1.67a19.42,19.42,0,0,0,.15,7.05c.25.94,1.44.48,2.22.62-.73.84-1.72.54-2.62.62a1.69,1.69,0,0,1-.87.37,5,5,0,0,1-2.14,0,234,234,0,0,1-23.51-7.26,1.49,1.49,0,0,1-.65-.64,3.45,3.45,0,0,0-3.24-.6l-1,.05a35,35,0,0,0-.08-13.1C1387.14-490.79,1386.91-492.48,1386.85-494.16Z" transform="translate(-1105.71 742.37)"/><path class="cls-8" d="M1556-380.77c0-5.17.17-10.35,0-15.51-.07-2.48.51-3.43,3.21-3.39,10.34.15,20.69.11,31,0,2.4,0,3.23.58,3.19,3.11-.15,8.89-.07,17.79,0,26.68,0,1.09-.41,2.31.6,3.22.41,1.1.83,2.19,1.24,3.29l-4.43-1.57a1.06,1.06,0,0,1-1.3-.59l-6.2-2.77c-.5.07-1,.21-1.14-.53l-6.22-2.68c-.63.2-1-.16-1.31-.62a25.23,25.23,0,0,0-6.18-2.65,1.4,1.4,0,0,1-1.45-.62,19.48,19.48,0,0,0-5.88-2.64c-.58.12-1.09.07-1.34-.58Z" transform="translate(-1105.71 742.37)"/><path class="cls-82" d="M1603.28-359.8c5.66-.93,8.14-3.76,8.15-9.39,0-9.11,0-18.21,0-27.32,0-1.23-.17-2.49.56-3.61,6,.6,8.58,3.32,8.6,9.51.06,12.72,0,25.44,0,38.17a1,1,0,0,1-1.7,0,25.42,25.42,0,0,0-5.83-2.67,1.52,1.52,0,0,1-1.57-.71l-5.85-2.62a1.62,1.62,0,0,1-1.56-.63Z" transform="translate(-1105.71 742.37)"/><path class="cls-83" d="M1596.7-362.28a1.46,1.46,0,0,1,1.41.54c-.95,2.25-1.88,4.51-2.86,6.75-.23.51-.46,1.28-1.26,1s-.53-1-.28-1.55C1594.7-357.81,1595.7-360,1596.7-362.28Z" transform="translate(-1105.71 742.37)"/><path class="cls-84" d="M1611.54-355.83l1.57.71c-1,2.26-2,4.53-3.09,6.78-.21.46-.49,1-1.13.83-.87-.26-.62-1-.38-1.51C1609.5-351.3,1610.53-353.56,1611.54-355.83Z" transform="translate(-1105.71 742.37)"/><path class="cls-85" d="M1641.13-343c1,.65,2.45.13,3.23,1.3-1.37-.39-2.06.26-2.53,1.49A42.43,42.43,0,0,1,1640-336c-.32.65-.49,2-1.54,1.42-.88-.46-.2-1.47.1-2.2C1639.38-338.85,1640.26-340.92,1641.13-343Z" transform="translate(-1105.71 742.37)"/><path class="cls-86" d="M1567-375.41a1.51,1.51,0,0,1,1.46.62c-1,2.25-2,4.51-3,6.75-.24.55-.5,1.27-1.29.92s-.51-1-.25-1.57Q1565.51-372,1567-375.41Z" transform="translate(-1105.71 742.37)"/><path class="cls-87" d="M1552.32-382l1.37.57c-1,2.27-2,4.54-2.94,6.8-.24.55-.49,1.29-1.3.94s-.49-1-.23-1.59C1550.24-377.54,1551.29-379.77,1552.32-382Z" transform="translate(-1105.71 742.37)"/><path class="cls-39" d="M1582.18-368.84l1.14.53c-1,2.26-2,4.53-3,6.78-.25.56-.6,1.25-1.34.87s-.41-1-.13-1.61C1580-364.45,1580.64-366.87,1582.18-368.84Z" transform="translate(-1105.71 742.37)"/><path class="cls-88" d="M1537.55-388.48l1.2.45c-.89,2.17-1.75,4.36-2.69,6.51-.26.61-.56,1.56-1.48,1.07-.67-.35-.28-1.11,0-1.65C1535.54-384.23,1536.55-386.35,1537.55-388.48Z" transform="translate(-1105.71 742.37)"/><path class="cls-89" d="M1633.05-346.69c1.12,0,2.13.23,2.56,1.46-1.27,1.15-1.39,2.91-2.26,4.27-.27.43-.4,1-1.08.79s-.56-.86-.42-1.5C1632.19-343.36,1634.28-344.63,1633.05-346.69Z" transform="translate(-1105.71 742.37)"/><path class="cls-90" d="M1545-385.24l1.25.56c-.62,1.52-1.22,3-1.86,4.56-.2.49-.48,1-1.13.67s-.58-.78-.34-1.31Z" transform="translate(-1105.71 742.37)"/><path class="cls-86" d="M1589.52-365.54l1.3.59c-.67,1.5-1.33,3-2,4.49-.17.35-.47.71-1,.55a.83.83,0,0,1-.49-1.24C1588-362.63,1588.79-364.08,1589.52-365.54Z" transform="translate(-1105.71 742.37)"/><path class="cls-90" d="M1604.13-359.08a2,2,0,0,1,1.56.63c-.67,1.47-1.33,2.95-2,4.41-.21.43-.47,1-1.1.73s-.56-.8-.35-1.31C1602.84-356.11,1603.49-357.6,1604.13-359.08Z" transform="translate(-1105.71 742.37)"/><path class="cls-91" d="M1574.65-372.14l1.31.62c-.64,1.49-1.27,3-1.93,4.48-.21.47-.55.93-1.16.61a.88.88,0,0,1-.34-1.3Z" transform="translate(-1105.71 742.37)"/><path class="cls-92" d="M1618.94-352.45h1.7l.72.61c-2,.58-1.77,2.6-2.64,3.92-.32.48-.51,1.31-1.3,1s-.48-1-.25-1.58C1617.74-349.81,1618.35-351.13,1618.94-352.45Z" transform="translate(-1105.71 742.37)"/><path class="cls-91" d="M1559.8-378.63l1.34.58c-.6,1.39-1.19,2.79-1.8,4.18-.25.58-.57,1.19-1.32.88s-.4-1-.17-1.52C1558.48-375.89,1559.15-377.26,1559.8-378.63Z" transform="translate(-1105.71 742.37)"/><path class="cls-93" d="M1624.4-344.48c.1.54.11,1.11.68,1.43a2.24,2.24,0,0,1-1,2.1.81.81,0,0,1-.75-.22C1622.87-342.52,1623.72-343.48,1624.4-344.48Z" transform="translate(-1105.71 742.37)"/><path class="cls-94" d="M1506.34-652.72l-5.68-.16,0-4.85.11,0a10.94,10.94,0,0,1,9.16,0C1510.51-654.79,1509.05-653.29,1506.34-652.72Z" transform="translate(-1105.71 742.37)"/><path class="cls-95" d="M1500.79-662.72c0-1.23-.07-2.46-.11-3.69,3.06-.39,6.21.43,9.2-.7l-1.14,4.37A8.48,8.48,0,0,1,1500.79-662.72Z" transform="translate(-1105.71 742.37)"/><path class="cls-96" d="M1500.71-658.39l0-3.69c2.67.29,5.44-.84,8,.61l.76,2.37c.07.63-.22,1-.83,1-2.64,0-5.28.36-7.9-.24Z" transform="translate(-1105.71 742.37)"/><path class="cls-97" d="M1508.78-661.47c-2.64-.63-5.43.7-8-.61l0-.64,8,0C1508.75-662.32,1508.77-661.9,1508.78-661.47Z" transform="translate(-1105.71 742.37)"/><path class="cls-98" d="M1500.81-658.36c2.9-.39,5.93.79,8.73-.74a1.38,1.38,0,0,1,.42,1.38l-9.16,0A1.35,1.35,0,0,1,1500.81-658.36Z" transform="translate(-1105.71 742.37)"/><path class="cls-99" d="M1417.35-562.57c-1.22.74-2.58.58-3.92.58h-50.15c-1.53,0-3.07-.13-4.6-.13-7.86,0-8.56-.52-10.87-7.77,1.24-4.26,4.24-6.23,7.88-5.17l.15,0a3.19,3.19,0,0,0,2.1.32h41.15a3.53,3.53,0,0,0,2.1-.29h.67c4,.63,8,.28,12,.22,2.22,0,3.47.47,3.5,2.83Z" transform="translate(-1105.71 742.37)"/><path class="cls-100" d="M1401.19-575c-.71.84-1.7.58-2.6.58q-20.08,0-40.18,0c-.89,0-1.88.3-2.57-.62h2.45Z" transform="translate(-1105.71 742.37)"/><path class="cls-101" d="M1416.74-595.54h.63q0,10.21,0,20.45l0,.14a.4.4,0,0,1-.64-.11Z" transform="translate(-1105.71 742.37)"/><path class="cls-102" d="M1416.72-575.07l.64.11c0,.19,0,.37,0,.56l0,2.46c-.61-2-1.91-2.52-4-2.55-3.83,0-7.71.76-11.48-.5Z" transform="translate(-1105.71 742.37)"/><path class="cls-27" d="M1579-461.78c0,3.61,0,7.23.11,10.84a2.37,2.37,0,0,1-1.92,2.7c-6.42,1.89-12.84,3.83-19.26,5.75-2.64-1.31-.88-3.65-1.22-5.48-.28-1.5,1.24-1.34,2.15-1.62A50.07,50.07,0,0,0,1579-461.78Z" transform="translate(-1105.71 742.37)"/><path class="cls-103" d="M1602.77-364.6a4.29,4.29,0,0,1-4.42-4.18,4.22,4.22,0,0,1,4.23-4.35A4.28,4.28,0,0,1,1607-369,4.37,4.37,0,0,1,1602.77-364.6Z" transform="translate(-1105.71 742.37)"/><path class="cls-23" d="M1348.91-378.49l4.35-1.19c1,4.06,3.26,7.56,4.91,11.33,2.76,6.34,5.79,12.57,8.7,18.85a5.23,5.23,0,0,1,.8,2.64c-1.69,1.66-3.91,1.67-6,1.93-1.57-.33-1.94-1.61-2.43-2.89-.43-1.12-.16-3.39-1.81-2.92-1.39.39-.24,2.34-.08,3.6s.59,2.23-.34,3.22c-2.22.84-4.4,1.88-6.86,1-.78-1-.47-2.17-.5-3.27Q1349.25-362.32,1348.91-378.49Z" transform="translate(-1105.71 742.37)"/><path class="cls-104" d="M1340.2-338.84c-3,.41-5.87,1.68-9,1.3,2.63-2.17,6-2.08,9-3C1340.19-339.95,1340.19-339.39,1340.2-338.84Z" transform="translate(-1105.71 742.37)"/><path class="cls-105" d="M1350.11-342.88l6.9-1.51c1.63,1.23.49,1.53-.62,1.83l-6.63,1.41A2.18,2.18,0,0,1,1350.11-342.88Z" transform="translate(-1105.71 742.37)"/><path class="cls-106" d="M1361.39-345.48l6.28-1.38a1.55,1.55,0,0,1,.66,1.34l-7,1.83C1359.83-344.31,1360.45-344.89,1361.39-345.48Z" transform="translate(-1105.71 742.37)"/><path class="cls-107" d="M1361.39-345.48c-.3.59-.94,1.18,0,1.79a15.89,15.89,0,0,0,.92,5.43,1.86,1.86,0,0,1-1.24,2.45c-1.27.5-1.72-.43-2.23-1.45-.87-1.74,0-4.27-2.42-5.3.64-.47,1.26-.94.62-1.83-.33-1.5-.67-3-1-4.49-.28-1.31-.7-2.85,1.08-3.33s2,1.1,2.48,2.37C1360.14-348.38,1359.61-346.44,1361.39-345.48Z" transform="translate(-1105.71 742.37)"/><path class="cls-9" d="M1428-480.5c.34-2.45,1.89-2.48,3.75-1.84A7.11,7.11,0,0,1,1428-480.5Z" transform="translate(-1105.71 742.37)"/><path class="cls-9" d="M1421.1-478c.53-2.58,2.44-1,3.74-1.24A5.91,5.91,0,0,1,1421.1-478Z" transform="translate(-1105.71 742.37)"/><path class="cls-108" d="M1424.85-451.88c-.95,3.57-4.14,5.41-6.26,8.07-1.63-.25-1.4-1.61-1.42-2.63-.1-5.53-.11-11.06,0-16.59,0-1-.18-2.4,1.49-2.56Z" transform="translate(-1105.71 742.37)"/><path class="cls-109" d="M1418.67-465.59A1.67,1.67,0,0,0,1418-464c0,6.28,0,12.55,0,18.82a3.91,3.91,0,0,0,.57,1.35c-.29,1.11-1,1-1.84.67a2.88,2.88,0,0,1-.07-.59,225.78,225.78,0,0,1-.07-22.83,2,2,0,0,1,.92-1.48.2.2,0,0,0,.32,0C1418.12-467.22,1418.4-466.41,1418.67-465.59Z" transform="translate(-1105.71 742.37)"/><path class="cls-17" d="M1228.22-382.23h-61c-1,0-2.08.33-2.94-.51q8.1-10.75,16.2-21.54a3.55,3.55,0,0,1,3.19-1.45q21.09,0,42.18,0c1.51,0,2.57.12,2.53,2.1C1228.27-396.49,1228.27-389.36,1228.22-382.23Z" transform="translate(-1105.71 742.37)"/><path class="cls-110" d="M1217.72-500.87c0,5.17,0,10.35,0,15.52,0,1.7-.5,2.41-2.3,2.4q-15.83-.09-31.67,0c-1.63,0-2.16-.63-2.15-2.21,0-10.56,0-21.11,0-31.67,0-1.86.81-2.24,2.45-2.24q15.67.08,31.36,0c1.77,0,2.34.65,2.32,2.37C1217.67-511.43,1217.72-506.15,1217.72-500.87Z" transform="translate(-1105.71 742.37)"/><path class="cls-110" d="M1217.61-449.61c0,7.76.05,15.51.13,23.27,0,1.61-.32,2.49-2.21,2.48q-15.83-.11-31.65,0c-1.83,0-2.27-.77-2.26-2.43q.08-15.68,0-31.34c0-1.72.56-2.37,2.32-2.36q15.68.08,31.35,0c1.61,0,2.61.32,2.45,2.21-.07.89-.23,1.95,1.12,2.16.59,1.29-.49,1.9-1.15,2.57-4.72,4.8-9.47,9.58-14.28,14.29-2.35,2.3-3.26,2.21-5.75-.08s-4.6-5.28-7.68-7.31c-.7,1.32.12,1.95.71,2.57,2.6,2.68,5.29,5.26,7.89,7.94,1.52,1.56,2.72,1.36,4.15-.18,3.93-4.25,8.25-8.13,12.21-12.36A3.53,3.53,0,0,1,1217.61-449.61Z" transform="translate(-1105.71 742.37)"/><path class="cls-110" d="M1266.49-519.06c10.36,0,20.71.13,31.06-.07,3.46-.07,2.82,2,2.92,4s0,3.64-3,3.62q-31.2-.19-62.42,0c-3.26,0-3.06-1.64-3.09-3.84s0-3.85,3.15-3.78C1245.58-518.92,1256-519.06,1266.49-519.06Z" transform="translate(-1105.71 742.37)"/><path class="cls-110" d="M1266.05-393.41c-10.36,0-20.71-.11-31.06.07-3,0-3.11-1.41-3-3.6.11-2-.58-4,2.9-4q31.36.21,62.73,0c3.55,0,2.67,2.13,2.83,4.07.19,2.28-.12,3.59-3,3.54C1287-393.52,1276.5-393.41,1266.05-393.41Z" transform="translate(-1105.71 742.37)"/><path class="cls-110" d="M1266.07-452.5c-10.36,0-20.71-.11-31.06.07-3,.05-3.16-1.36-3-3.58.13-2-.63-4.05,2.88-4q31.36.21,62.73,0c3.53,0,2.7,2.1,2.85,4.05.17,2.25-.08,3.61-3,3.56C1287-452.61,1276.52-452.5,1266.07-452.5Z" transform="translate(-1105.71 742.37)"/><path class="cls-111" d="M1266.19-491.68c-10.35,0-20.7-.13-31,.08-3.18.06-3.2-1.49-3.16-3.78s-.2-3.87,3.08-3.84q31.2.23,62.42,0c3,0,3.1,1.42,3,3.61-.11,2,.56,4.07-2.91,4C1287.11-491.81,1276.65-491.68,1266.19-491.68Z" transform="translate(-1105.71 742.37)"/><path class="cls-110" d="M1261.49-432.59c-8.9,0-17.8-.14-26.7.07-3.29.07-2.77-1.89-2.77-3.81s-.52-3.82,2.77-3.8q26.7.22,53.4,0c3.42,0,2.88,1.9,3,4s.12,3.72-3,3.65C1279.3-432.72,1270.39-432.59,1261.49-432.59Z" transform="translate(-1105.71 742.37)"/><path class="cls-110" d="M1248.8-373.5c-4.65,0-9.31-.09-14,0-2.12.06-2.91-.55-2.88-2.77.06-4.73-.06-4.73,4.61-4.73,8.89,0,17.78.12,26.67-.07,3-.07,3.14,1.37,3,3.58-.13,2,.64,4.21-2.87,4C1258.53-373.7,1253.66-373.5,1248.8-373.5Z" transform="translate(-1105.71 742.37)"/><path class="cls-112" d="M1217.61-449.61c-5,4.93-10.1,9.77-15,14.82-1.68,1.75-2.58,1.58-4.1-.07-2.87-3.12-6-6-9-9-.82-.82-1.83-1.75-.77-2.89s2.06-.14,2.87.66q3.75,3.71,7.46,7.45c.88.89,1.53,1.5,2.74.25,5.61-5.78,11.31-11.47,17-17.2,1.08-.53,2.07-2.32,3.36-.62,1.08,1.44-.58,2.13-1.31,3C1219.85-452,1218.71-450.82,1217.61-449.61Z" transform="translate(-1105.71 742.37)"/><path class="cls-113" d="M1416.86-366.07q-4.23-27.75-8.48-55.52a4.2,4.2,0,0,1,.3-2.69q4.11-8.18,8.19-16.37c1.91,1,1.34,2.82,1.35,4.35q.08,26.55,0,53.11c0,4.86.21,9.73-.27,14.58C1417.88-367.66,1418.25-366.46,1416.86-366.07Z" transform="translate(-1105.71 742.37)"/><path class="cls-43" d="M1417.53-468c-.07.34-.14.68-.22,1a70.44,70.44,0,0,1-5.08,12.93c-.34.71-.54,1.63-1.61,1.64-.89.91-1.59.82-2.44-.18-4.59-5.4-9.3-10.69-13.82-16.14-1.51-1.82-3.42-3.25-4.68-5.33-1-1.69.11-1.35,1-1.43,6,1.79,12,3.52,18,5.4A48.79,48.79,0,0,0,1417.53-468Z" transform="translate(-1105.71 742.37)"/><path class="cls-114" d="M1410.62-452.46c2.58-4.7,3.94-10,6.69-14.57,0,6.91,0,13.83,0,20.74,0,.9.22,1.89-.68,2.56-1.83-2-3.61-4-5.49-5.88A2.75,2.75,0,0,1,1410.62-452.46Z" transform="translate(-1105.71 742.37)"/><path class="cls-115" d="M1416.86-366.07c.81-.87.49-2,.49-3q0-34.34,0-68.65c0-1,.32-2.09-.48-3a1.45,1.45,0,0,1,0-.55c1.34-.74,1.56.19,1.75,1.17.9,11.45.38,22.92.37,34.38,0,12.08.65,24.18-.62,36.23a1.65,1.65,0,0,0,.27.87c.37,1.53-1.12,2.79-.62,4.34-1.24.37-.68-.91-1.15-1.25A.86.86,0,0,1,1416.86-366.07Z" transform="translate(-1105.71 742.37)"/><path class="cls-116" d="M1416.82-365.46l1.15,1.25a1.7,1.7,0,0,1-.62,2.07C1416.46-363.13,1416.88-364.33,1416.82-365.46Z" transform="translate(-1105.71 742.37)"/><path class="cls-117" d="M1418.59-368.55c-.92-.82-.58-1.92-.58-2.91q0-32.82,0-65.65c0-1-.35-2.09.56-2.92,2.53,5.08,5,10.16,7.62,15.22a5.27,5.27,0,0,1,.52,3.3Q1422.65-395,1418.59-368.55Z" transform="translate(-1105.71 742.37)"/><path class="cls-2" d="M1647.45-620.29c-20.69-4.61-30.24-31.12-17.55-48.7,11-15.25,32.91-18.17,46.12-6.13a4.66,4.66,0,0,1-.85,2.92Q1662.55-648,1650-623.78A8.66,8.66,0,0,1,1647.45-620.29Z" transform="translate(-1105.71 742.37)"/><path class="cls-6" d="M1647.45-620.29c1.84-3.68,3.63-7.39,5.53-11q6.78-13,13.63-26,4.68-8.89,9.41-17.74c13.31,9.58,15.63,30.86,4.8,44.15C1672.52-620.78,1658.71-616.36,1647.45-620.29Z" transform="translate(-1105.71 742.37)"/><path class="cls-118" d="M1251.07-576.15c-6,1-11.93.27-17.9.38-1.63,0-1.22-1.43-1-2.35a11.4,11.4,0,0,1,8-8.65,10.15,10.15,0,0,1,11,2.8C1252.42-581.34,1253.19-578.71,1251.07-576.15Z" transform="translate(-1105.71 742.37)"/><path class="cls-119" d="M1251.07-576.15l.18-7.82a7.24,7.24,0,0,1,3.12,4.46c.26,1.13,1.33,2.5.19,3.46C1253.62-575.26,1252.22-575.51,1251.07-576.15Z" transform="translate(-1105.71 742.37)"/><path class="cls-120" d="M1339.49-393.68a8,8,0,0,1,8.28-8.18,8.27,8.27,0,0,1,8.13,8.39,7.88,7.88,0,0,1-8.47,8.2C1342.71-385.37,1339.44-388.84,1339.49-393.68Z" transform="translate(-1105.71 742.37)"/><path class="cls-121" d="M1336.63-412.17c1.51,1.61,1.3,3.75,1.8,5.68-.1,1.12-.15,2.28-1.8,2.64Z" transform="translate(-1105.71 742.37)"/><path class="cls-122" d="M1483.83-708.8a11.08,11.08,0,0,1,6-9.11c2.84-1.52,5.4,0,5.11,3.17a12.8,12.8,0,0,1-5.42,9.65c-1.2.84-2.53,1.76-4.27.76S1484-706.75,1483.83-708.8Z" transform="translate(-1105.71 742.37)"/></svg>