<svg xmlns="http://www.w3.org/2000/svg" xmlns:xlink="http://www.w3.org/1999/xlink" viewBox="0 0 611.6 619.49"><defs><style>.cls-1,.cls-7,.cls-8{fill:#fff;}.cls-1,.cls-6{stroke:#283c50;}.cls-1{stroke-width:0.06px;}.cls-2,.cls-9{fill:none;}.cls-3{opacity:0.6;}.cls-4{clip-path:url(#clip-path);}.cls-5{mask:url(#mask);}.cls-6{stroke-width:0.03px;opacity:0.43;isolation:isolate;fill:url(#linear-gradient);}.cls-7,.cls-9{stroke:#fff;}.cls-7{stroke-width:9px;}.cls-9{stroke-miterlimit:10;stroke-width:8px;}</style><clipPath id="clip-path" transform="translate(254.38 594.98)"><path id="SVGID" class="cls-2" d="M-172.75-591h526a0,0,0,0,1,0,0V-65a8.5,8.5,0,0,1-8.5,8.5h-526a0,0,0,0,1,0,0v-526A8.5,8.5,0,0,1-172.75-591Z"/></clipPath><mask id="mask" x="-0.69" y="-88.9" width="708.97" height="708.97" maskUnits="userSpaceOnUse"><g transform="translate(254.38 594.98)"><g id="a"><circle class="cls-1" cx="99.41" cy="-329.4" r="354.46"/></g></g></mask><linearGradient id="linear-gradient" x1="-180.73" y1="867.26" x2="136.86" y2="1223.47" gradientTransform="matrix(1, 0, 0, -1, 0, 842.11)" gradientUnits="userSpaceOnUse"><stop offset="0" stop-color="#010101" stop-opacity="0"/><stop offset="1" stop-color="#010101"/></linearGradient></defs><title>logo</title><g id="Layer_1" data-name="Layer 1"><g class="cls-3"><g class="cls-4"><g class="cls-5"><path class="cls-6" d="M76.82-561.26,28.75-511.1,3.14-541.54-36-518.95-254.37-300.58C-243.76-110.8-88.79,18.31,70.52,24.49L289-194l22.6-39.14-30.53-25.68,50.23-48.09v-45.19l-49.46-8.79a187,187,0,0,0-7.37-28.31l37.07-36.66L288.92-465l-47.51,17.23a186.8,186.8,0,0,0-23.56-23.5L234.93-519l-39.14-22.6-36.74,37.19a237.51,237.51,0,0,0-28-7.34l-9-49.55Z" transform="translate(254.38 594.98)"/></g></g></g><path class="cls-7" d="M270.73-289.54l-10.35-22.54L71.19-225.22-27-439l-25,11.49L45.25-215.72c.31.68.75,1.26,1.11,1.9l-.2.09A24.87,24.87,0,0,0,79-201.54l2-.91h0l.5-.23h0Z" transform="translate(254.38 594.98)"/><path class="cls-8" d="M112.52-406.73h24.8a0,0,0,0,1,0,0V-266a1.3,1.3,0,0,1-1.3,1.3h-22.2a1.3,1.3,0,0,1-1.3-1.3V-406.73a0,0,0,0,1,0,0Z" transform="translate(736.5 232.75) rotate(-114.66)"/><path class="cls-8" d="M74.88-488.72h24.8a0,0,0,0,1,0,0v142.07a0,0,0,0,1,0,0H76.5a1.62,1.62,0,0,1-1.62-1.62V-488.72A0,0,0,0,1,74.88-488.72Z" transform="translate(757.67 82.35) rotate(-114.66)"/><path class="cls-9" d="M73.13,4H494.21A113.39,113.39,0,0,1,607.6,117.39V538.46a0,0,0,0,1,0,0H186.52A113.39,113.39,0,0,1,73.13,425.08V4a0,0,0,0,1,0,0Z"/></g><g id="Layer_2" data-name="Layer 2"><path class="cls-8" d="M329.28-309.88v-45.19l-49.47-8.79a186.14,186.14,0,0,0-8.8-32.3l38.51-32.67L286.92-468l-47.51,17.23a186.14,186.14,0,0,0-23.56-23.5L232.92-522l-39.13-22.59-32.55,38.69A187.08,187.08,0,0,0,129-514.71l-9-49.55H74.82L66-514.65a186.09,186.09,0,0,0-32.58,8.5L1.14-544.54-38-521.95l16.76,46.83a186.79,186.79,0,0,0-24.41,24L-92-467.95l-22.59,39.13,37.16,31.53a187.37,187.37,0,0,0-9.36,33.76l-47.62,8.46v45.19l47.61,8.66a186.21,186.21,0,0,0,9,34.13l-36.81,31L-92.06-197l45.12-16.15a186,186,0,0,0,25.15,25.28L-38.06-143l39.14,22.6L32-156.85a186,186,0,0,0,34.47,9.25l8.35,47H120l8.57-47.1a186.85,186.85,0,0,0,34.06-9.48l31.21,36.77L233-143,216.33-188.9a185.65,185.65,0,0,0,24.44-24.6L287-197l22.6-39.14-38-32A186,186,0,0,0,280.33-301ZM97.43-175.67A156.75,156.75,0,0,1-59.32-332.42,156.75,156.75,0,0,1,97.43-489.17,156.75,156.75,0,0,1,254.18-332.42,156.75,156.75,0,0,1,97.43-175.67Z" transform="translate(254.38 594.98)"/></g></svg>